<svg class="plot-d6a7b5" fill="currentColor" font-family="system-ui, sans-serif" font-size="10" text-anchor="middle" width="1200" height="600" viewBox="0 0 1200 600"><style>:where(.plot-d6a7b5) {
  --plot-background: white;
  display: block;
  height: auto;
  height: intrinsic;
  max-width: 100%;
}
:where(.plot-d6a7b5 text),
:where(.plot-d6a7b5 tspan) {
  white-space: pre;
}</style><g aria-label="y-grid" aria-hidden="true" stroke="currentColor" stroke-opacity="0.1"><line x1="40" x2="1180" y1="565.8678958158879" y2="565.8678958158879"></line><line x1="40" x2="1180" y1="541.2527838470547" y2="541.2527838470547"></line><line x1="40" x2="1180" y1="516.6376718782218" y2="516.6376718782218"></line><line x1="40" x2="1180" y1="492.02255990938863" y2="492.02255990938863"></line><line x1="40" x2="1180" y1="467.4074479405556" y2="467.4074479405556"></line><line x1="40" x2="1180" y1="442.7923359717225" y2="442.7923359717225"></line><line x1="40" x2="1180" y1="418.1772240028894" y2="418.1772240028894"></line><line x1="40" x2="1180" y1="393.56211203405627" y2="393.56211203405627"></line><line x1="40" x2="1180" y1="368.94700006522316" y2="368.94700006522316"></line><line x1="40" x2="1180" y1="344.3318880963902" y2="344.3318880963902"></line><line x1="40" x2="1180" y1="319.71677612755707" y2="319.71677612755707"></line><line x1="40" x2="1180" y1="295.10166415872396" y2="295.10166415872396"></line><line x1="40" x2="1180" y1="270.4865521898909" y2="270.4865521898909"></line><line x1="40" x2="1180" y1="245.87144022105778" y2="245.87144022105778"></line><line x1="40" x2="1180" y1="221.25632825222473" y2="221.25632825222473"></line><line x1="40" x2="1180" y1="196.6412162833916" y2="196.6412162833916"></line><line x1="40" x2="1180" y1="172.02610431455855" y2="172.02610431455855"></line><line x1="40" x2="1180" y1="147.41099234572542" y2="147.41099234572542"></line><line x1="40" x2="1180" y1="122.79588037689237" y2="122.79588037689237"></line><line x1="40" x2="1180" y1="98.18076840805925" y2="98.18076840805925"></line><line x1="40" x2="1180" y1="73.56565643922619" y2="73.56565643922619"></line><line x1="40" x2="1180" y1="48.950544470393126" y2="48.950544470393126"></line><line x1="40" x2="1180" y1="24.33543250156001" y2="24.33543250156001"></line></g><g aria-label="y-axis tick" aria-hidden="true" fill="none" stroke="currentColor"><path transform="translate(40,565.8678958158879)" d="M0,0L-6,0"></path><path transform="translate(40,541.2527838470547)" d="M0,0L-6,0"></path><path transform="translate(40,516.6376718782218)" d="M0,0L-6,0"></path><path transform="translate(40,492.02255990938863)" d="M0,0L-6,0"></path><path transform="translate(40,467.4074479405556)" d="M0,0L-6,0"></path><path transform="translate(40,442.7923359717225)" d="M0,0L-6,0"></path><path transform="translate(40,418.1772240028894)" d="M0,0L-6,0"></path><path transform="translate(40,393.56211203405627)" d="M0,0L-6,0"></path><path transform="translate(40,368.94700006522316)" d="M0,0L-6,0"></path><path transform="translate(40,344.3318880963902)" d="M0,0L-6,0"></path><path transform="translate(40,319.71677612755707)" d="M0,0L-6,0"></path><path transform="translate(40,295.10166415872396)" d="M0,0L-6,0"></path><path transform="translate(40,270.4865521898909)" d="M0,0L-6,0"></path><path transform="translate(40,245.87144022105778)" d="M0,0L-6,0"></path><path transform="translate(40,221.25632825222473)" d="M0,0L-6,0"></path><path transform="translate(40,196.6412162833916)" d="M0,0L-6,0"></path><path transform="translate(40,172.02610431455855)" d="M0,0L-6,0"></path><path transform="translate(40,147.41099234572542)" d="M0,0L-6,0"></path><path transform="translate(40,122.79588037689237)" d="M0,0L-6,0"></path><path transform="translate(40,98.18076840805925)" d="M0,0L-6,0"></path><path transform="translate(40,73.56565643922619)" d="M0,0L-6,0"></path><path transform="translate(40,48.950544470393126)" d="M0,0L-6,0"></path><path transform="translate(40,24.33543250156001)" d="M0,0L-6,0"></path></g><g aria-label="y-axis tick label" text-anchor="end" font-variant="tabular-nums" transform="translate(-9,0)"><text y="0.32em" transform="translate(40,565.8678958158879)">−2,200,000</text><text y="0.32em" transform="translate(40,541.2527838470547)">−2,000,000</text><text y="0.32em" transform="translate(40,516.6376718782218)">−1,800,000</text><text y="0.32em" transform="translate(40,492.02255990938863)">−1,600,000</text><text y="0.32em" transform="translate(40,467.4074479405556)">−1,400,000</text><text y="0.32em" transform="translate(40,442.7923359717225)">−1,200,000</text><text y="0.32em" transform="translate(40,418.1772240028894)">−1,000,000</text><text y="0.32em" transform="translate(40,393.56211203405627)">−800,000</text><text y="0.32em" transform="translate(40,368.94700006522316)">−600,000</text><text y="0.32em" transform="translate(40,344.3318880963902)">−400,000</text><text y="0.32em" transform="translate(40,319.71677612755707)">−200,000</text><text y="0.32em" transform="translate(40,295.10166415872396)">0</text><text y="0.32em" transform="translate(40,270.4865521898909)">200,000</text><text y="0.32em" transform="translate(40,245.87144022105778)">400,000</text><text y="0.32em" transform="translate(40,221.25632825222473)">600,000</text><text y="0.32em" transform="translate(40,196.6412162833916)">800,000</text><text y="0.32em" transform="translate(40,172.02610431455855)">1,000,000</text><text y="0.32em" transform="translate(40,147.41099234572542)">1,200,000</text><text y="0.32em" transform="translate(40,122.79588037689237)">1,400,000</text><text y="0.32em" transform="translate(40,98.18076840805925)">1,600,000</text><text y="0.32em" transform="translate(40,73.56565643922619)">1,800,000</text><text y="0.32em" transform="translate(40,48.950544470393126)">2,000,000</text><text y="0.32em" transform="translate(40,24.33543250156001)">2,200,000</text></g><g aria-label="y-axis label" text-anchor="start" transform="translate(-37,-17)"><text y="0.71em" transform="translate(40,20)">↑ devFromMean</text></g><g aria-label="x-grid" aria-hidden="true" stroke="currentColor" stroke-opacity="0.1"><line x1="40" x2="40" y1="20" y2="570"></line><line x1="143.63636363636363" x2="143.63636363636363" y1="20" y2="570"></line><line x1="247.27272727272728" x2="247.27272727272728" y1="20" y2="570"></line><line x1="350.9090909090909" x2="350.9090909090909" y1="20" y2="570"></line><line x1="454.54545454545456" x2="454.54545454545456" y1="20" y2="570"></line><line x1="558.1818181818182" x2="558.1818181818182" y1="20" y2="570"></line><line x1="661.8181818181818" x2="661.8181818181818" y1="20" y2="570"></line><line x1="765.4545454545454" x2="765.4545454545454" y1="20" y2="570"></line><line x1="869.0909090909091" x2="869.0909090909091" y1="20" y2="570"></line><line x1="972.7272727272727" x2="972.7272727272727" y1="20" y2="570"></line><line x1="1076.3636363636365" x2="1076.3636363636365" y1="20" y2="570"></line><line x1="1180" x2="1180" y1="20" y2="570"></line></g><g aria-label="x-axis tick" aria-hidden="true" fill="none" stroke="currentColor"><path transform="translate(40,570)" d="M0,0L0,6"></path><path transform="translate(143.63636363636363,570)" d="M0,0L0,6"></path><path transform="translate(247.27272727272728,570)" d="M0,0L0,6"></path><path transform="translate(350.9090909090909,570)" d="M0,0L0,6"></path><path transform="translate(454.54545454545456,570)" d="M0,0L0,6"></path><path transform="translate(558.1818181818182,570)" d="M0,0L0,6"></path><path transform="translate(661.8181818181818,570)" d="M0,0L0,6"></path><path transform="translate(765.4545454545454,570)" d="M0,0L0,6"></path><path transform="translate(869.0909090909091,570)" d="M0,0L0,6"></path><path transform="translate(972.7272727272727,570)" d="M0,0L0,6"></path><path transform="translate(1076.3636363636365,570)" d="M0,0L0,6"></path><path transform="translate(1180,570)" d="M0,0L0,6"></path></g><g aria-label="x-axis tick label" font-variant="tabular-nums" transform="translate(0,9)"><text y="0.71em" transform="translate(40,570)">1</text><text y="0.71em" transform="translate(143.63636363636363,570)">2</text><text y="0.71em" transform="translate(247.27272727272728,570)">3</text><text y="0.71em" transform="translate(350.9090909090909,570)">4</text><text y="0.71em" transform="translate(454.54545454545456,570)">5</text><text y="0.71em" transform="translate(558.1818181818182,570)">6</text><text y="0.71em" transform="translate(661.8181818181818,570)">7</text><text y="0.71em" transform="translate(765.4545454545454,570)">8</text><text y="0.71em" transform="translate(869.0909090909091,570)">9</text><text y="0.71em" transform="translate(972.7272727272727,570)">10</text><text y="0.71em" transform="translate(1076.3636363636365,570)">11</text><text y="0.71em" transform="translate(1180,570)">12</text></g><g aria-label="x-axis label" text-anchor="end" transform="translate(17,27)"><text transform="translate(1180,570)">month →</text></g><g aria-label="rule" stroke="currentColor"><line x1="40" x2="1180" y1="295.10166415872396" y2="295.10166415872396"></line></g><g aria-label="line" fill="none" stroke-width="1.5" stroke-linejoin="round" stroke-linecap="round"><path stroke="rgb(5, 48, 97)" d="M40,69.591L57.273,85.586C74.545,101.58,109.091,133.569,143.636,134.347C178.182,135.125,212.727,104.693,247.273,93.073C281.818,81.452,316.364,88.643,350.909,96.253C385.455,103.863,420,111.892,454.545,115.513C489.091,119.133,523.636,118.345,558.182,121.44C592.727,124.536,627.273,131.516,661.818,139.018C696.364,146.521,730.909,154.547,765.455,164.684C800,174.822,834.545,187.072,869.091,176.811C903.636,166.549,938.182,133.776,972.727,103.889C1007.273,74.002,1041.818,47.001,1076.364,41.201C1110.909,35.401,1145.455,50.801,1162.727,58.502L1180,66.202"></path></g><g aria-label="line" fill="none" stroke-width="1.5" stroke-linejoin="round" stroke-linecap="round"><path stroke="rgb(5, 48, 97)" d="M40,159.736L57.273,167.283C74.545,174.83,109.091,189.925,143.636,200.481C178.182,211.037,212.727,217.055,247.273,218.259C281.818,219.463,316.364,215.853,350.909,202.591C385.455,189.33,420,166.416,454.545,155.243C489.091,144.07,523.636,144.637,558.182,158.324C592.727,172.01,627.273,198.817,661.818,195.474C696.364,192.131,730.909,158.639,765.455,150.961C800,143.283,834.545,161.421,869.091,171.386C903.636,181.351,938.182,183.143,972.727,186.403C1007.273,189.663,1041.818,194.391,1076.364,194.378C1110.909,194.365,1145.455,189.61,1162.727,187.233L1180,184.856"></path></g><g aria-label="line" fill="none" stroke-width="1.5" stroke-linejoin="round" stroke-linecap="round"><path stroke="rgb(5, 48, 97)" d="M40,201.454L57.273,210.826C74.545,220.199,109.091,238.944,143.636,251.28C178.182,263.615,212.727,269.54,247.273,265.265C281.818,260.99,316.364,246.514,350.909,237.84C385.455,229.165,420,226.29,454.545,199.401C489.091,172.512,523.636,121.609,558.182,97.062C592.727,72.516,627.273,74.326,661.818,87.82C696.364,101.313,730.909,126.49,765.455,142.279C800,158.067,834.545,164.468,869.091,180.967C903.636,197.466,938.182,224.064,972.727,236.663C1007.273,249.263,1041.818,247.864,1076.364,246.629C1110.909,245.393,1145.455,244.322,1162.727,243.786L1180,243.25"></path></g><g aria-label="line" fill="none" stroke-width="1.5" stroke-linejoin="round" stroke-linecap="round"><path stroke="rgb(5, 48, 97)" d="M40,156.55L57.273,167.698C74.545,178.846,109.091,201.143,143.636,218.559C178.182,235.974,212.727,248.509,247.273,257.86C281.818,267.211,316.364,273.378,350.909,270.175C385.455,266.971,420,254.397,454.545,249.146C489.091,243.896,523.636,245.969,558.182,248.201C592.727,250.434,627.273,252.826,661.818,250.954C696.364,249.083,730.909,242.947,765.455,248.528C800,254.11,834.545,271.408,869.091,297.904C903.636,324.4,938.182,360.094,972.727,383.677C1007.273,407.261,1041.818,418.734,1076.364,411.585C1110.909,404.437,1145.455,378.667,1162.727,365.782L1180,352.898"></path></g><g aria-label="line" fill="none" stroke-width="1.5" stroke-linejoin="round" stroke-linecap="round"><path stroke="rgb(5, 48, 97)" d="M40,221.932L57.273,227.787C74.545,233.641,109.091,245.351,143.636,255.688C178.182,266.025,212.727,274.99,247.273,294.787C281.818,314.585,316.364,345.215,350.909,359.225C385.455,373.236,420,370.627,454.545,363.24C489.091,355.852,523.636,343.684,558.182,353.308C592.727,362.932,627.273,394.347,661.818,408.617C696.364,422.887,730.909,420.011,765.455,431.402C800,442.792,834.545,468.448,869.091,460.826C903.636,453.203,938.182,412.301,972.727,384.113C1007.273,355.925,1041.818,340.45,1076.364,329.391C1110.909,318.331,1145.455,311.688,1162.727,308.366L1180,305.045"></path></g><g aria-label="line" fill="none" stroke-width="1.5" stroke-linejoin="round" stroke-linecap="round"><path stroke="rgb(5, 48, 97)" d="M40,168.678L57.273,162.324C74.545,155.969,109.091,143.26,143.636,156.969C178.182,170.679,212.727,210.806,247.273,245.628C281.818,280.45,316.364,309.966,350.909,328.712C385.455,347.458,420,355.434,454.545,370.511C489.091,385.587,523.636,407.765,558.182,405.79C592.727,403.814,627.273,377.685,661.818,363.235C696.364,348.785,730.909,346.014,765.455,348.1C800,350.187,834.545,357.13,869.091,357.536C903.636,357.941,938.182,351.808,972.727,336.184C1007.273,320.56,1041.818,295.445,1076.364,279.512C1110.909,263.579,1145.455,256.828,1162.727,253.452L1180,250.076"></path></g><g aria-label="line" fill="none" stroke-width="1.5" stroke-linejoin="round" stroke-linecap="round"><path stroke="rgb(5, 48, 97)" d="M40,237.956L57.273,246.958C74.545,255.961,109.091,273.967,143.636,284.984C178.182,296,212.727,300.028,247.273,288.594C281.818,277.161,316.364,250.266,350.909,234.994C385.455,219.722,420,216.072,454.545,209.815C489.091,203.557,523.636,194.692,558.182,196.586C592.727,198.479,627.273,211.131,661.818,230.126C696.364,249.12,730.909,274.456,765.455,291.944C800,309.432,834.545,319.073,869.091,322.406C903.636,325.74,938.182,322.766,972.727,321.911C1007.273,321.056,1041.818,322.32,1076.364,334.321C1110.909,346.322,1145.455,369.061,1162.727,380.43C1180,391.799,1180,391.799,1180,391.799L1180,391.799"></path></g><g aria-label="line" fill="none" stroke-width="1.5" stroke-linejoin="round" stroke-linecap="round"><path stroke="rgb(8, 54, 105)" d="M40,342.122L57.273,340.128C74.545,338.134,109.091,334.146,143.636,342.142C178.182,350.138,212.727,370.117,247.273,394.723C281.818,419.329,316.364,448.561,350.909,459.439C385.455,470.317,420,462.84,454.545,448.826C489.091,434.813,523.636,414.262,558.182,395.188C592.727,376.114,627.273,358.517,661.818,340.742C696.364,322.968,730.909,305.016,765.455,290.187C800,275.358,834.545,263.652,869.091,253.724C903.636,243.796,938.182,235.646,972.727,231.168C1007.273,226.69,1041.818,225.885,1076.364,234.658C1110.909,243.43,1145.455,261.779,1162.727,270.954C1180,280.129,1180,280.129,1180,280.129L1180,280.129"></path></g><g aria-label="line" fill="none" stroke-width="1.5" stroke-linejoin="round" stroke-linecap="round"><path stroke="rgb(11, 60, 113)" d="M40,361.867L57.273,355.338C74.545,348.808,109.091,335.75,143.636,338.194C178.182,340.639,212.727,358.588,247.273,373.531C281.818,388.475,316.364,400.414,350.909,403.308C385.455,406.202,420,400.05,454.545,386.616C489.091,373.181,523.636,352.464,558.182,334.082C592.727,315.701,627.273,299.655,661.818,293.399C696.364,287.144,730.909,290.677,765.455,290.18C800,289.683,834.545,285.155,869.091,280.036C903.636,274.917,938.182,269.207,972.727,262.777C1007.273,256.346,1041.818,249.195,1076.364,236.666C1110.909,224.137,1145.455,206.229,1162.727,197.276C1180,188.322,1180,188.322,1180,188.322L1180,188.322"></path></g><g aria-label="line" fill="none" stroke-width="1.5" stroke-linejoin="round" stroke-linecap="round"><path stroke="rgb(14, 66, 121)" d="M40,254.727L57.273,261.281C74.545,267.836,109.091,280.944,143.636,283.174C178.182,285.404,212.727,276.755,247.273,259.904C281.818,243.052,316.364,217.999,350.909,210.115C385.455,202.232,420,211.518,454.545,226.262C489.091,241.006,523.636,261.208,558.182,274.962C592.727,288.717,627.273,296.024,661.818,297.22C696.364,298.416,730.909,293.501,765.455,294.497C800,295.492,834.545,302.398,869.091,308.237C903.636,314.077,938.182,318.849,972.727,317C1007.273,315.151,1041.818,306.68,1076.364,318.325C1110.909,329.97,1145.455,361.731,1162.727,377.612C1180,393.493,1180,393.493,1180,393.493L1180,393.493"></path></g><g aria-label="line" fill="none" stroke-width="1.5" stroke-linejoin="round" stroke-linecap="round"><path stroke="rgb(17, 71, 129)" d="M40,317.261L57.273,314.073C74.545,310.885,109.091,304.509,143.636,301.743C178.182,298.977,212.727,299.821,247.273,305.922C281.818,312.023,316.364,323.383,350.909,335.316C385.455,347.249,420,359.756,454.545,368.717C489.091,377.677,523.636,383.091,558.182,380.032C592.727,376.973,627.273,365.441,661.818,359.754C696.364,354.067,730.909,354.226,765.455,342.135C800,330.044,834.545,305.704,869.091,298.097C903.636,290.491,938.182,299.618,972.727,295.186C1007.273,290.754,1041.818,272.763,1076.364,263.044C1110.909,253.326,1145.455,251.88,1162.727,251.158C1180,250.435,1180,250.435,1180,250.435L1180,250.435"></path></g><g aria-label="line" fill="none" stroke-width="1.5" stroke-linejoin="round" stroke-linecap="round"><path stroke="rgb(20, 77, 136)" d="M40,313.493L57.273,319.357C74.545,325.22,109.091,336.947,143.636,343.06C178.182,349.172,212.727,349.669,247.273,348.271C281.818,346.872,316.364,343.577,350.909,342.717C385.455,341.857,420,343.433,454.545,339.577C489.091,335.72,523.636,326.432,558.182,308.834C592.727,291.236,627.273,265.329,661.818,257.571C696.364,249.813,730.909,260.204,765.455,275.626C800,291.048,834.545,311.502,869.091,324.857C903.636,338.213,938.182,344.471,972.727,329.146C1007.273,313.821,1041.818,276.914,1076.364,258.611C1110.909,240.308,1145.455,240.609,1162.727,240.76C1180,240.91,1180,240.91,1180,240.91L1180,240.91"></path></g><g aria-label="line" fill="none" stroke-width="1.5" stroke-linejoin="round" stroke-linecap="round"><path stroke="rgb(24, 83, 144)" d="M40,351.842L57.273,348.004C74.545,344.166,109.091,336.491,143.636,334.187C178.182,331.883,212.727,334.95,247.273,337.596C281.818,340.241,316.364,342.465,350.909,335.376C385.455,328.286,420,311.883,454.545,300.871C489.091,289.859,523.636,284.238,558.182,288.549C592.727,292.861,627.273,307.105,661.818,312.029C696.364,316.954,730.909,312.56,765.455,303.338C800,294.116,834.545,280.065,869.091,274.081C903.636,268.096,938.182,270.178,972.727,263.49C1007.273,256.802,1041.818,241.344,1076.364,218.17C1110.909,194.996,1145.455,164.106,1162.727,148.66C1180,133.215,1180,133.215,1180,133.215L1180,133.215"></path></g><g aria-label="line" fill="none" stroke-width="1.5" stroke-linejoin="round" stroke-linecap="round"><path stroke="rgb(27, 88, 150)" d="M40,236.709L57.273,244.446C74.545,252.184,109.091,267.66,143.636,284.575C178.182,301.49,212.727,319.845,247.273,330.282C281.818,340.719,316.364,343.238,350.909,353.536C385.455,363.834,420,381.912,454.545,388.285C489.091,394.658,523.636,389.326,558.182,384.675C592.727,380.024,627.273,376.054,661.818,376.235C696.364,376.416,730.909,380.749,765.455,383.826C800,386.903,834.545,388.724,869.091,391.165C903.636,393.607,938.182,396.669,972.727,394.942C1007.273,393.214,1041.818,386.698,1076.364,377.126C1110.909,367.555,1145.455,354.928,1162.727,348.615C1180,342.301,1180,342.301,1180,342.301L1180,342.301"></path></g><g aria-label="line" fill="none" stroke-width="1.5" stroke-linejoin="round" stroke-linecap="round"><path stroke="rgb(30, 94, 157)" d="M40,271.022L57.273,272.228C74.545,273.434,109.091,275.847,143.636,278.861C178.182,281.874,212.727,285.489,247.273,290.18C281.818,294.872,316.364,300.639,350.909,311.078C385.455,321.516,420,336.625,454.545,347.234C489.091,357.842,523.636,363.949,558.182,358.401C592.727,352.852,627.273,335.649,661.818,326.102C696.364,316.556,730.909,314.666,765.455,315.408C800,316.149,834.545,319.523,869.091,323.896C903.636,328.27,938.182,333.643,972.727,330.086C1007.273,326.528,1041.818,314.039,1076.364,297.675C1110.909,281.312,1145.455,261.074,1162.727,250.955C1180,240.836,1180,240.836,1180,240.836L1180,240.836"></path></g><g aria-label="line" fill="none" stroke-width="1.5" stroke-linejoin="round" stroke-linecap="round"><path stroke="rgb(33, 99, 162)" d="M40,326.582L57.273,325.965C74.545,325.348,109.091,324.115,143.636,320.899C178.182,317.682,212.727,312.483,247.273,319.262C281.818,326.041,316.364,344.799,350.909,354.131C385.455,363.464,420,363.371,454.545,357.234C489.091,351.097,523.636,338.916,558.182,331.543C592.727,324.17,627.273,321.606,661.818,319.934C696.364,318.262,730.909,317.482,765.455,316.854C800,316.225,834.545,315.747,869.091,305.351C903.636,294.955,938.182,274.64,972.727,260.781C1007.273,246.922,1041.818,239.519,1076.364,225.275C1110.909,211.032,1145.455,189.947,1162.727,179.405C1180,168.862,1180,168.862,1180,168.862L1180,168.862"></path></g><g aria-label="line" fill="none" stroke-width="1.5" stroke-linejoin="round" stroke-linecap="round"><path stroke="rgb(37, 105, 167)" d="M40,320.236L57.273,318.793C74.545,317.351,109.091,314.466,143.636,313.098C178.182,311.73,212.727,311.879,247.273,320.167C281.818,328.454,316.364,344.881,350.909,339.165C385.455,333.448,420,305.589,454.545,289.818C489.091,274.046,523.636,270.361,558.182,278.019C592.727,285.678,627.273,304.678,661.818,314.953C696.364,325.229,730.909,326.779,765.455,329.218C800,331.657,834.545,334.984,869.091,333.023C903.636,331.063,938.182,323.815,972.727,314.575C1007.273,305.335,1041.818,294.103,1076.364,294.565C1110.909,295.026,1145.455,307.18,1162.727,313.257C1180,319.334,1180,319.334,1180,319.334L1180,319.334"></path></g><g aria-label="line" fill="none" stroke-width="1.5" stroke-linejoin="round" stroke-linecap="round"><path stroke="rgb(40, 110, 172)" d="M40,304.269L57.273,304.281C74.545,304.293,109.091,304.318,143.636,304.805C178.182,305.291,212.727,306.24,247.273,301.495C281.818,296.749,316.364,286.311,350.909,293.307C385.455,300.304,420,324.736,454.545,333.399C489.091,342.063,523.636,334.958,558.182,333.553C592.727,332.148,627.273,336.444,661.818,334.442C696.364,332.44,730.909,324.139,765.455,322.235C800,320.33,834.545,324.821,869.091,323.041C903.636,321.261,938.182,313.21,972.727,310.952C1007.273,308.694,1041.818,312.229,1076.364,312.23C1110.909,312.231,1145.455,308.699,1162.727,306.933C1180,305.167,1180,305.167,1180,305.167L1180,305.167"></path></g><g aria-label="line" fill="none" stroke-width="1.5" stroke-linejoin="round" stroke-linecap="round"><path stroke="rgb(44, 115, 176)" d="M40,246.28L57.273,253.403C74.545,260.526,109.091,274.772,143.636,288.153C178.182,301.534,212.727,314.05,247.273,310.76C281.818,307.469,316.364,288.373,350.909,280.592C385.455,272.811,420,276.345,454.545,286.459C489.091,296.574,523.636,313.269,558.182,323.869C592.727,334.47,627.273,338.975,661.818,333.468C696.364,327.962,730.909,312.443,765.455,307.634C800,302.826,834.545,308.727,869.091,310.739C903.636,312.752,938.182,310.876,972.727,308.687C1007.273,306.499,1041.818,303.999,1076.364,298.453C1110.909,292.907,1145.455,284.317,1162.727,280.021C1180,275.726,1180,275.726,1180,275.726L1180,275.726"></path></g><g aria-label="line" fill="none" stroke-width="1.5" stroke-linejoin="round" stroke-linecap="round"><path stroke="rgb(48, 120, 180)" d="M40,318.952L57.273,320.595C74.545,322.238,109.091,325.524,143.636,331.654C178.182,337.785,212.727,346.76,247.273,342.188C281.818,337.616,316.364,319.498,350.909,314.142C385.455,308.786,420,316.193,454.545,326.266C489.091,336.339,523.636,349.08,558.182,345.343C592.727,341.606,627.273,321.392,661.818,310.444C696.364,299.496,730.909,297.813,765.455,303.429C800,309.045,834.545,321.959,869.091,323.759C903.636,325.558,938.182,316.243,972.727,304.289C1007.273,292.334,1041.818,277.74,1076.364,272.27C1110.909,266.8,1145.455,270.455,1162.727,272.283C1180,274.11,1180,274.11,1180,274.11L1180,274.11"></path></g><g aria-label="line" fill="none" stroke-width="1.5" stroke-linejoin="round" stroke-linecap="round"><path stroke="rgb(52, 125, 183)" d="M40,360.594L57.273,362.583C74.545,364.572,109.091,368.55,143.636,365.765C178.182,362.981,212.727,353.434,247.273,344.417C281.818,335.399,316.364,326.912,350.909,319.812C385.455,312.711,420,306.999,454.545,307.205C489.091,307.412,523.636,313.537,558.182,314.255C592.727,314.973,627.273,310.283,661.818,311.134C696.364,311.986,730.909,318.378,765.455,315.112C800,311.846,834.545,298.923,869.091,291.962C903.636,285,938.182,284.002,972.727,277.192C1007.273,270.381,1041.818,257.758,1076.364,261.778C1110.909,265.798,1145.455,286.461,1162.727,296.793C1180,307.124,1180,307.124,1180,307.124L1180,307.124"></path></g><g aria-label="line" fill="none" stroke-width="1.5" stroke-linejoin="round" stroke-linecap="round"><path stroke="rgb(56, 131, 186)" d="M40,292.014L57.273,290.709C74.545,289.404,109.091,286.794,143.636,277.352C178.182,267.91,212.727,251.636,247.273,245.692C281.818,239.747,316.364,244.132,350.909,248.847C385.455,253.561,420,258.606,454.545,261.999C489.091,265.393,523.636,267.135,558.182,265.123C592.727,263.111,627.273,257.344,661.818,259.557C696.364,261.771,730.909,271.964,765.455,276.252C800,280.539,834.545,278.92,869.091,279.826C903.636,280.731,938.182,284.161,972.727,282.102C1007.273,280.043,1041.818,272.496,1076.364,272.387C1110.909,272.278,1145.455,279.607,1162.727,283.272C1180,286.937,1180,286.937,1180,286.937L1180,286.937"></path></g><g aria-label="line" fill="none" stroke-width="1.5" stroke-linejoin="round" stroke-linecap="round"><path stroke="rgb(61, 136, 189)" d="M40,209.335L57.273,214.384C74.545,219.434,109.091,229.534,143.636,232.268C178.182,235.002,212.727,230.37,247.273,230.846C281.818,231.322,316.364,236.906,350.909,243.013C385.455,249.119,420,255.748,454.545,265.71C489.091,275.672,523.636,288.967,558.182,298.407C592.727,307.846,627.273,313.43,661.818,311.085C696.364,308.74,730.909,298.466,765.455,296.404C800,294.341,834.545,300.489,869.091,301.643C903.636,302.796,938.182,298.954,972.727,297.074C1007.273,295.194,1041.818,295.276,1076.364,283.235C1110.909,271.194,1145.455,247.031,1162.727,234.95C1180,222.868,1180,222.868,1180,222.868L1180,222.868"></path></g><g aria-label="line" fill="none" stroke-width="1.5" stroke-linejoin="round" stroke-linecap="round"><path stroke="rgb(66, 141, 192)" d="M40,180.788L57.273,202.441C74.545,224.094,109.091,267.4,143.636,284.017C178.182,300.633,212.727,290.559,247.273,279.013C281.818,267.466,316.364,254.446,350.909,241.268C385.455,228.09,420,214.754,454.545,213.022C489.091,211.29,523.636,221.162,558.182,233.14C592.727,245.119,627.273,259.206,661.818,269.754C696.364,280.303,730.909,287.313,765.455,287.648C800,287.982,834.545,281.641,869.091,283.108C903.636,284.575,938.182,293.85,972.727,295.472C1007.273,297.093,1041.818,291.06,1076.364,297.555C1110.909,304.051,1145.455,323.074,1162.727,332.585C1180,342.097,1180,342.097,1180,342.097L1180,342.097"></path></g><g aria-label="line" fill="none" stroke-width="1.5" stroke-linejoin="round" stroke-linecap="round"><path stroke="rgb(72, 146, 195)" d="M40,386.752L57.273,384.234C74.545,381.717,109.091,376.682,143.636,373.877C178.182,371.072,212.727,370.497,247.273,364.962C281.818,359.427,316.364,348.931,350.909,337.121C385.455,325.312,420,312.188,454.545,309.764C489.091,307.339,523.636,315.613,558.182,315.417C592.727,315.221,627.273,306.554,661.818,302.811C696.364,299.068,730.909,300.249,765.455,297.219C800,294.188,834.545,286.946,869.091,286.645C903.636,286.343,938.182,292.982,972.727,293.568C1007.273,294.154,1041.818,288.687,1076.364,282.808C1110.909,276.93,1145.455,270.64,1162.727,267.495C1180,264.349,1180,264.349,1180,264.349L1180,264.349"></path></g><g aria-label="line" fill="none" stroke-width="1.5" stroke-linejoin="round" stroke-linecap="round"><path stroke="rgb(78, 151, 197)" d="M40,353.86L57.273,346.567C74.545,339.274,109.091,324.688,143.636,314.023C178.182,303.359,212.727,296.617,247.273,293.917C281.818,291.218,316.364,292.561,350.909,289.898C385.455,287.235,420,280.567,454.545,281.512C489.091,282.456,523.636,291.014,558.182,294.131C592.727,297.249,627.273,294.927,661.818,291.171C696.364,287.415,730.909,282.224,765.455,273.753C800,265.281,834.545,253.528,869.091,243.596C903.636,233.664,938.182,225.552,972.727,220.786C1007.273,216.019,1041.818,214.597,1076.364,217.583C1110.909,220.57,1145.455,227.964,1162.727,231.661C1180,235.358,1180,235.358,1180,235.358L1180,235.358"></path></g><g aria-label="line" fill="none" stroke-width="1.5" stroke-linejoin="round" stroke-linecap="round"><path stroke="rgb(85, 156, 200)" d="M40,310.567L57.273,310.963C74.545,311.359,109.091,312.151,143.636,311.352C178.182,310.554,212.727,308.164,247.273,304.199C281.818,300.233,316.364,294.691,350.909,290.656C385.455,286.621,420,284.093,454.545,278.935C489.091,273.776,523.636,265.986,558.182,261.276C592.727,256.565,627.273,254.933,661.818,256.5C696.364,258.067,730.909,262.834,765.455,265.159C800,267.484,834.545,267.368,869.091,265.315C903.636,263.263,938.182,259.275,972.727,257.158C1007.273,255.041,1041.818,254.796,1076.364,247.331C1110.909,239.866,1145.455,225.18,1162.727,217.837C1180,210.495,1180,210.495,1180,210.495L1180,210.495"></path></g><g aria-label="line" fill="none" stroke-width="1.5" stroke-linejoin="round" stroke-linecap="round"><path stroke="rgb(92, 161, 203)" d="M40,318.879L57.273,319.107C74.545,319.334,109.091,319.789,143.636,315.401C178.182,311.013,212.727,301.782,247.273,291.685C281.818,281.589,316.364,270.628,350.909,255.368C385.455,240.107,420,220.549,454.545,215.309C489.091,210.068,523.636,219.146,558.182,231.649C592.727,244.151,627.273,260.079,661.818,261.555C696.364,263.032,730.909,250.058,765.455,244.69C800,239.322,834.545,241.56,869.091,249.171C903.636,256.782,938.182,269.765,972.727,275.82C1007.273,281.874,1041.818,280.999,1076.364,285.64C1110.909,290.282,1145.455,300.441,1162.727,305.52C1180,310.599,1180,310.599,1180,310.599L1180,310.599"></path></g><g aria-label="line" fill="none" stroke-width="1.5" stroke-linejoin="round" stroke-linecap="round"><path stroke="rgb(99, 167, 206)" d="M40,259.343L57.273,254.254C74.545,249.165,109.091,238.987,143.636,231.286C178.182,223.585,212.727,218.361,247.273,225.311C281.818,232.262,316.364,251.386,350.909,261.486C385.455,271.586,420,272.66,454.545,275.356C489.091,278.052,523.636,282.369,558.182,287.797C592.727,293.226,627.273,299.766,661.818,307.582C696.364,315.399,730.909,324.493,765.455,328.701C800,332.91,834.545,332.232,869.091,332.05C903.636,331.868,938.182,332.18,972.727,326.631C1007.273,321.082,1041.818,309.672,1076.364,297.05C1110.909,284.428,1145.455,270.596,1162.727,263.679C1180,256.763,1180,256.763,1180,256.763L1180,256.763"></path></g><g aria-label="line" fill="none" stroke-width="1.5" stroke-linejoin="round" stroke-linecap="round"><path stroke="rgb(107, 172, 208)" d="M40,320.055L57.273,319.006C74.545,317.957,109.091,315.859,143.636,318.213C178.182,320.567,212.727,327.374,247.273,334.866C281.818,342.358,316.364,350.536,350.909,357.245C385.455,363.954,420,369.193,454.545,378.587C489.091,387.982,523.636,401.53,558.182,399.166C592.727,396.802,627.273,378.524,661.818,372.261C696.364,365.997,730.909,371.748,765.455,372.861C800,373.973,834.545,370.447,869.091,360.082C903.636,349.718,938.182,332.514,972.727,325.284C1007.273,318.054,1041.818,320.798,1076.364,302.058C1110.909,283.317,1145.455,243.092,1162.727,222.979C1180,202.867,1180,202.867,1180,202.867L1180,202.867"></path></g><g aria-label="line" fill="none" stroke-width="1.5" stroke-linejoin="round" stroke-linecap="round"><path stroke="rgb(115, 177, 211)" d="M40,202.4L57.273,200.949C74.545,199.497,109.091,196.593,143.636,199.862C178.182,203.131,212.727,212.573,247.273,218.79C281.818,225.007,316.364,227.999,350.909,226.433C385.455,224.867,420,218.743,454.545,214.698C489.091,210.654,523.636,208.689,558.182,211.241C592.727,213.793,627.273,220.864,661.818,236.509C696.364,252.154,730.909,276.373,765.455,289.241C800,302.108,834.545,303.624,869.091,298.734C903.636,293.843,938.182,282.547,972.727,275.285C1007.273,268.024,1041.818,264.797,1076.364,266C1110.909,267.204,1145.455,272.838,1162.727,275.655C1180,278.472,1180,278.473,1180,278.473L1180,278.473"></path></g><g aria-label="line" fill="none" stroke-width="1.5" stroke-linejoin="round" stroke-linecap="round"><path stroke="rgb(123, 182, 214)" d="M40,226.457L57.273,224.927C74.545,223.396,109.091,220.335,143.636,218.223C178.182,216.11,212.727,214.947,247.273,215.917C281.818,216.886,316.364,219.989,350.909,224.252C385.455,228.515,420,233.938,454.545,233.699C489.091,233.461,523.636,227.561,558.182,225.443C592.727,223.324,627.273,224.988,661.818,228.651C696.364,232.315,730.909,237.978,765.455,237.776C800,237.573,834.545,231.505,869.091,230.509C903.636,229.513,938.182,233.589,972.727,241.102C1007.273,248.615,1041.818,259.566,1076.364,273.567C1110.909,287.568,1145.455,304.619,1162.727,313.144C1180,321.67,1180,321.67,1180,321.67L1180,321.67"></path></g><g aria-label="line" fill="none" stroke-width="1.5" stroke-linejoin="round" stroke-linecap="round"><path stroke="rgb(131, 187, 216)" d="M40,339.89L57.273,333.947C74.545,328.005,109.091,316.12,143.636,306.443C178.182,296.766,212.727,289.296,247.273,283.261C281.818,277.225,316.364,272.623,350.909,271.253C385.455,269.882,420,271.744,454.545,277.283C489.091,282.822,523.636,292.04,558.182,290.58C592.727,289.12,627.273,276.983,661.818,271.863C696.364,266.743,730.909,268.64,765.455,267.747C800,266.854,834.545,263.171,869.091,261.681C903.636,260.191,938.182,260.894,972.727,260.649C1007.273,260.405,1041.818,259.212,1076.364,284.663C1110.909,310.114,1145.455,362.208,1162.727,388.255C1180,414.302,1180,414.302,1180,414.302L1180,414.302"></path></g><g aria-label="line" fill="none" stroke-width="1.5" stroke-linejoin="round" stroke-linecap="round"><path stroke="rgb(139, 191, 219)" d="M40,423.357L57.273,411.07C74.545,398.782,109.091,374.206,143.636,368.705C178.182,363.203,212.727,376.775,247.273,383.843C281.818,390.91,316.364,391.473,350.909,388.51C385.455,385.546,420,379.056,454.545,361.391C489.091,343.727,523.636,314.888,558.182,296.715C592.727,278.542,627.273,271.034,661.818,263.599C696.364,256.164,730.909,248.802,765.455,240.926C800,233.051,834.545,224.662,869.091,219.571C903.636,214.481,938.182,212.689,972.727,219.191C1007.273,225.693,1041.818,240.489,1076.364,265.987C1110.909,291.484,1145.455,327.683,1162.727,345.783C1180,363.882,1180,363.882,1180,363.882L1180,363.882"></path></g><g aria-label="line" fill="none" stroke-width="1.5" stroke-linejoin="round" stroke-linecap="round"><path stroke="rgb(146, 196, 221)" d="M40,353.661L57.273,346.146C74.545,338.631,109.091,323.601,143.636,316.004C178.182,308.408,212.727,308.245,247.273,313.371C281.818,318.497,316.364,328.912,350.909,335.416C385.455,341.919,420,344.511,454.545,336.291C489.091,328.071,523.636,309.039,558.182,298.465C592.727,287.89,627.273,285.774,661.818,286.552C696.364,287.33,730.909,291.002,765.455,283.973C800,276.944,834.545,259.214,869.091,250.431C903.636,241.649,938.182,241.814,972.727,250.396C1007.273,258.979,1041.818,275.98,1076.364,252.066C1110.909,228.153,1145.455,163.326,1162.727,130.912C1180,98.499,1180,98.499,1180,98.499L1180,98.499"></path></g><g aria-label="line" fill="none" stroke-width="1.5" stroke-linejoin="round" stroke-linecap="round"><path stroke="rgb(154, 200, 224)" d="M40,149.511L57.273,158.79C74.545,168.068,109.091,186.625,143.636,184.376C178.182,182.127,212.727,159.073,247.273,143.264C281.818,127.455,316.364,118.89,350.909,124.599C385.455,130.307,420,150.287,454.545,163.773C489.091,177.259,523.636,184.249,558.182,200.09C592.727,215.931,627.273,240.622,661.818,257.566C696.364,274.51,730.909,283.708,765.455,294.115C800,304.522,834.545,316.139,869.091,316.569C903.636,316.998,938.182,306.239,972.727,291.604C1007.273,276.969,1041.818,258.459,1076.364,239.805C1110.909,221.15,1145.455,202.351,1162.727,192.951C1180,183.552,1180,183.552,1180,183.552L1180,183.552"></path></g><g aria-label="line" fill="none" stroke-width="1.5" stroke-linejoin="round" stroke-linecap="round"><path stroke="rgb(161, 204, 226)" d="M40,223.042L57.273,234.03C74.545,245.018,109.091,266.995,143.636,267.535C178.182,268.076,212.727,247.181,247.273,226.387C281.818,205.593,316.364,184.9,350.909,178.293C385.455,171.686,420,179.164,454.545,186.77C489.091,194.377,523.636,202.111,558.182,212.363C592.727,222.615,627.273,235.385,661.818,241.129C696.364,246.874,730.909,245.592,765.455,242.745C800,239.898,834.545,235.486,869.091,237.969C903.636,240.453,938.182,249.83,972.727,260.043C1007.273,270.255,1041.818,281.302,1076.364,282.233C1110.909,283.163,1145.455,273.977,1162.727,269.384C1180,264.791,1180,264.791,1180,264.791L1180,264.791"></path></g><g aria-label="line" fill="none" stroke-width="1.5" stroke-linejoin="round" stroke-linecap="round"><path stroke="rgb(168, 208, 228)" d="M40,315.827L57.273,310.824C74.545,305.821,109.091,295.815,143.636,293.056C178.182,290.296,212.727,294.783,247.273,296.729C281.818,298.676,316.364,298.082,350.909,286.011C385.455,273.939,420,250.39,454.545,226.763C489.091,203.135,523.636,179.429,558.182,169.887C592.727,160.346,627.273,164.969,661.818,170.194C696.364,175.419,730.909,181.245,765.455,194.906C800,208.566,834.545,230.061,869.091,234.929C903.636,239.796,938.182,228.036,972.727,219.162C1007.273,210.288,1041.818,204.301,1076.364,203.384C1110.909,202.467,1145.455,206.62,1162.727,208.697C1180,210.773,1180,210.773,1180,210.773L1180,210.773"></path></g><g aria-label="line" fill="none" stroke-width="1.5" stroke-linejoin="round" stroke-linecap="round"><path stroke="rgb(175, 212, 230)" d="M40,364.225L57.273,361.254C74.545,358.282,109.091,352.34,143.636,352.101C178.182,351.863,212.727,357.329,247.273,362.47C281.818,367.612,316.364,372.43,350.909,360.5C385.455,348.571,420,319.894,454.545,304.977C489.091,290.061,523.636,288.904,558.182,291.864C592.727,294.824,627.273,301.9,661.818,300.393C696.364,298.887,730.909,288.798,765.455,279.809C800,270.821,834.545,262.932,869.091,271.95C903.636,280.968,938.182,306.893,972.727,324.264C1007.273,341.636,1041.818,350.454,1076.364,336.066C1110.909,321.679,1145.455,284.085,1162.727,265.288C1180,246.491,1180,246.491,1180,246.491L1180,246.491"></path></g><g aria-label="line" fill="none" stroke-width="1.5" stroke-linejoin="round" stroke-linecap="round"><path stroke="rgb(182, 215, 232)" d="M40,298.594L57.273,299.386C74.545,300.178,109.091,301.762,143.636,302.933C178.182,304.104,212.727,304.861,247.273,307.819C281.818,310.776,316.364,315.933,350.909,322.281C385.455,328.629,420,336.167,454.545,342.306C489.091,348.444,523.636,353.184,558.182,352.904C592.727,352.624,627.273,347.325,661.818,342.527C696.364,337.729,730.909,333.431,765.455,315.707C800,297.982,834.545,266.83,869.091,249.678C903.636,232.527,938.182,229.377,972.727,233.843C1007.273,238.309,1041.818,250.391,1076.364,263.491C1110.909,276.591,1145.455,290.708,1162.727,297.766C1180,304.825,1180,304.825,1180,304.825L1180,304.825"></path></g><g aria-label="line" fill="none" stroke-width="1.5" stroke-linejoin="round" stroke-linecap="round"><path stroke="rgb(188, 218, 234)" d="M40,248.197L57.273,240.136C74.545,232.075,109.091,215.953,143.636,201.923C178.182,187.893,212.727,175.955,247.273,174.022C281.818,172.089,316.364,180.161,350.909,184.319C385.455,188.476,420,188.719,454.545,188.033C489.091,187.348,523.636,185.735,558.182,184.388C592.727,183.041,627.273,181.96,661.818,179.868C696.364,177.777,730.909,174.675,765.455,173.17C800,171.664,834.545,171.754,869.091,170.631C903.636,169.509,938.182,167.174,972.727,165.55C1007.273,163.926,1041.818,163.012,1076.364,155.531C1110.909,148.05,1145.455,134.002,1162.727,126.977C1180,119.953,1180,119.953,1180,119.953L1180,119.953"></path></g><g aria-label="line" fill="none" stroke-width="1.5" stroke-linejoin="round" stroke-linecap="round"><path stroke="rgb(194, 222, 236)" d="M40,154.74L57.273,162.564C74.545,170.387,109.091,186.035,143.636,190.214C178.182,194.393,212.727,187.104,247.273,170.466C281.818,153.828,316.364,127.84,350.909,116.609C385.455,105.377,420,108.901,454.545,111.447C489.091,113.993,523.636,115.559,558.182,119.894C592.727,124.228,627.273,131.33,661.818,135.65C696.364,139.969,730.909,141.507,765.455,139.697C800,137.888,834.545,132.731,869.091,137.663C903.636,142.596,938.182,157.618,972.727,174.681C1007.273,191.743,1041.818,210.846,1076.364,200.509C1110.909,190.172,1145.455,150.395,1162.727,130.507C1180,110.618,1180,110.618,1180,110.618L1180,110.618"></path></g><g aria-label="line" fill="none" stroke-width="1.5" stroke-linejoin="round" stroke-linecap="round"><path stroke="rgb(200, 224, 237)" d="M40,98.321L57.273,115.765C74.545,133.209,109.091,168.097,143.636,179.321C178.182,190.545,212.727,178.104,247.273,160.042C281.818,141.979,316.364,118.294,350.909,105.669C385.455,93.044,420,91.477,454.545,99.678C489.091,107.878,523.636,125.846,558.182,142.012C592.727,158.178,627.273,172.544,661.818,196.501C696.364,220.459,730.909,254.01,765.455,272.4C800,290.79,834.545,294.019,869.091,287.178C903.636,280.337,938.182,263.426,972.727,256.536C1007.273,249.647,1041.818,252.778,1076.364,258.496C1110.909,264.214,1145.455,272.519,1162.727,276.671C1180,280.824,1180,280.824,1180,280.824L1180,280.824"></path></g><g aria-label="line" fill="none" stroke-width="1.5" stroke-linejoin="round" stroke-linecap="round"><path stroke="rgb(206, 227, 238)" d="M40,344.048L57.273,340.334C74.545,336.619,109.091,329.191,143.636,318.235C178.182,307.278,212.727,292.792,247.273,278.485C281.818,264.178,316.364,250.05,350.909,252.988C385.455,255.926,420,275.93,454.545,285.846C489.091,295.763,523.636,295.59,558.182,291.57C592.727,287.55,627.273,279.681,661.818,275.695C696.364,271.708,730.909,271.604,765.455,281.465C800,291.327,834.545,311.155,869.091,327.493C903.636,343.831,938.182,356.679,972.727,388.028C1007.273,419.377,1041.818,469.227,1076.364,502.639C1110.909,536.052,1145.455,553.026,1162.727,561.513C1180,570,1180,570,1180,570L1180,570"></path></g><g aria-label="line" fill="none" stroke-width="1.5" stroke-linejoin="round" stroke-linecap="round"><path stroke="rgb(211, 230, 240)" d="M40,449.623L57.273,437.668C74.545,425.713,109.091,401.803,143.636,399.395C178.182,396.987,212.727,416.081,247.273,428.799C281.818,441.517,316.364,447.858,350.909,446.463C385.455,445.068,420,435.938,454.545,426.31C489.091,416.681,523.636,406.556,558.182,396.345C592.727,386.134,627.273,375.838,661.818,368.203C696.364,360.567,730.909,355.593,765.455,355.501C800,355.409,834.545,360.201,869.091,355.899C903.636,351.598,938.182,338.205,972.727,342.125C1007.273,346.045,1041.818,367.279,1076.364,382.874C1110.909,398.468,1145.455,408.423,1162.727,413.401C1180,418.378,1180,418.378,1180,418.378L1180,418.378"></path></g><g aria-label="line" fill="none" stroke-width="1.5" stroke-linejoin="round" stroke-linecap="round"><path stroke="rgb(216, 232, 241)" d="M40,409.557L57.273,402.751C74.545,395.945,109.091,382.334,143.636,370.577C178.182,358.82,212.727,348.919,247.273,351.586C281.818,354.252,316.364,369.487,350.909,376.78C385.455,384.073,420,383.424,454.545,375.837C489.091,368.25,523.636,353.724,558.182,341.619C592.727,329.514,627.273,319.831,661.818,317.391C696.364,314.952,730.909,319.756,765.455,326.706C800,333.655,834.545,342.75,869.091,344.866C903.636,346.983,938.182,342.121,972.727,351.564C1007.273,361.007,1041.818,384.753,1076.364,410.887C1110.909,437.022,1145.455,465.545,1162.727,479.806C1180,494.068,1180,494.068,1180,494.068L1180,494.068"></path></g><g aria-label="line" fill="none" stroke-width="1.5" stroke-linejoin="round" stroke-linecap="round"><path stroke="rgb(221, 234, 242)" d="M40,445.99L57.273,428.328C74.545,410.666,109.091,375.341,143.636,365.99C178.182,356.64,212.727,373.263,247.273,387.304C281.818,401.345,316.364,412.804,350.909,421.853C385.455,430.902,420,437.541,454.545,435.969C489.091,434.396,523.636,424.613,558.182,410.594C592.727,396.576,627.273,378.322,661.818,362.644C696.364,346.966,730.909,333.863,765.455,324.489C800,315.116,834.545,309.471,869.091,306.921C903.636,304.371,938.182,304.916,972.727,319.962C1007.273,335.008,1041.818,364.554,1076.364,385.148C1110.909,405.742,1145.455,417.383,1162.727,423.203C1180,429.024,1180,429.024,1180,429.024L1180,429.024"></path></g><g aria-label="line" fill="none" stroke-width="1.5" stroke-linejoin="round" stroke-linecap="round"><path stroke="rgb(225, 236, 242)" d="M40,370.639L57.273,361.142C74.545,351.645,109.091,332.65,143.636,319.466C178.182,306.283,212.727,298.911,247.273,297.833C281.818,296.755,316.364,301.97,350.909,306.262C385.455,310.553,420,313.919,454.545,311.251C489.091,308.582,523.636,299.878,558.182,298.226C592.727,296.575,627.273,301.975,661.818,300.982C696.364,299.989,730.909,292.602,765.455,281.878C800,271.153,834.545,257.09,869.091,249.189C903.636,241.288,938.182,239.549,972.727,241.234C1007.273,242.919,1041.818,248.028,1076.364,258.528C1110.909,269.027,1145.455,284.915,1162.727,292.86C1180,300.804,1180,300.804,1180,300.804L1180,300.804"></path></g><g aria-label="line" fill="none" stroke-width="1.5" stroke-linejoin="round" stroke-linecap="round"><path stroke="rgb(229, 238, 242)" d="M40,357.072L57.273,350.348C74.545,343.625,109.091,330.179,143.636,309.845C178.182,289.512,212.727,262.291,247.273,250.543C281.818,238.796,316.364,242.523,350.909,245.398C385.455,248.274,420,250.298,454.545,252.396C489.091,254.494,523.636,256.666,558.182,251.537C592.727,246.407,627.273,233.976,661.818,229.36C696.364,224.743,730.909,227.941,765.455,238.398C800,248.855,834.545,266.572,869.091,285.956C903.636,305.341,938.182,326.394,972.727,347.963C1007.273,369.531,1041.818,391.616,1076.364,413.79C1110.909,435.964,1145.455,458.227,1162.727,469.359C1180,480.49,1180,480.49,1180,480.49L1180,480.49"></path></g><g aria-label="line" fill="none" stroke-width="1.5" stroke-linejoin="round" stroke-linecap="round"><path stroke="rgb(233, 239, 242)" d="M40,439.439L57.273,429.516C74.545,419.594,109.091,399.75,143.636,395.691C178.182,391.632,212.727,403.359,247.273,404.412C281.818,405.465,316.364,395.845,350.909,388.874C385.455,381.904,420,377.585,454.545,383.077C489.091,388.57,523.636,403.875,558.182,408.527C592.727,413.179,627.273,407.179,661.818,398.599C696.364,390.02,730.909,378.862,765.455,367.675C800,356.488,834.545,345.273,869.091,345.064C903.636,344.856,938.182,355.654,972.727,364.207C1007.273,372.76,1041.818,379.068,1076.364,403.781C1110.909,428.493,1145.455,471.61,1162.727,493.168C1180,514.726,1180,514.726,1180,514.726L1180,514.726"></path></g><g aria-label="line" fill="none" stroke-width="1.5" stroke-linejoin="round" stroke-linecap="round"><path stroke="rgb(236, 239, 241)" d="M40,508.417L57.273,492.819C74.545,477.222,109.091,446.027,143.636,430.129C178.182,414.232,212.727,413.633,247.273,417.544C281.818,421.454,316.364,429.875,350.909,443.199C385.455,456.522,420,474.749,454.545,494.628C489.091,514.506,523.636,536.036,558.182,548.467C592.727,560.898,627.273,564.229,661.818,563.349C696.364,562.469,730.909,557.377,765.455,544.114C800,530.852,834.545,509.418,869.091,502.402C903.636,495.385,938.182,502.787,972.727,503.302C1007.273,503.817,1041.818,497.446,1076.364,496.935C1110.909,496.424,1145.455,501.773,1162.727,502.798C1180,503.822,1180,500.521,1180,498.87L1180,497.22"></path></g><g aria-label="line" fill="none" stroke-width="1.5" stroke-linejoin="round" stroke-linecap="round"><path stroke="rgb(239, 240, 240)" d="M40,414.433L57.273,409.463C74.545,404.494,109.091,394.555,143.636,387.277C178.182,379.999,212.727,375.381,247.273,369.925C281.818,364.469,316.364,358.176,350.909,359.411C385.455,360.646,420,369.409,454.545,388.54C489.091,407.671,523.636,437.169,558.182,457.625C592.727,478.082,627.273,489.496,661.818,486.788C696.364,484.079,730.909,467.248,765.455,458.844C800,450.441,834.545,450.465,869.091,454.307C903.636,458.15,938.182,465.811,972.727,472.836C1007.273,479.861,1041.818,486.25,1076.364,473.624C1110.909,460.997,1145.455,429.356,1162.727,413.535L1180,397.714"></path></g><g aria-label="line" fill="none" stroke-width="1.5" stroke-linejoin="round" stroke-linecap="round"><path stroke="rgb(242, 239, 238)" d="M40,329.507L57.273,337.63C74.545,345.754,109.091,362.001,143.636,372.68C178.182,383.359,212.727,388.47,247.273,384.923C281.818,381.376,316.364,369.171,350.909,368.293C385.455,367.414,420,377.863,454.545,389.593C489.091,401.323,523.636,414.335,558.182,421.91C592.727,429.485,627.273,431.624,661.818,431.426C696.364,431.227,730.909,428.692,765.455,418.843C800,408.994,834.545,391.831,869.091,389.557C903.636,387.282,938.182,399.896,972.727,409.857C1007.273,419.818,1041.818,427.128,1076.364,427.559C1110.909,427.991,1145.455,421.545,1162.727,418.322L1180,415.099"></path></g></svg>