<svg class="plot-d6a7b5" fill="currentColor" font-family="system-ui, sans-serif" font-size="10" text-anchor="middle" width="1200" height="600" viewBox="0 0 1200 600"><style>:where(.plot-d6a7b5) {
  --plot-background: white;
  display: block;
  height: auto;
  height: intrinsic;
  max-width: 100%;
}
:where(.plot-d6a7b5 text),
:where(.plot-d6a7b5 tspan) {
  white-space: pre;
}</style><g aria-label="y-grid" aria-hidden="true" stroke="currentColor" stroke-opacity="0.1"><line x1="40" x2="1180" y1="570" y2="570"></line><line x1="40" x2="1180" y1="542.2868914608243" y2="542.2868914608243"></line><line x1="40" x2="1180" y1="514.5737829216487" y2="514.5737829216487"></line><line x1="40" x2="1180" y1="486.8606743824731" y2="486.8606743824731"></line><line x1="40" x2="1180" y1="459.14756584329746" y2="459.14756584329746"></line><line x1="40" x2="1180" y1="431.4344573041218" y2="431.4344573041218"></line><line x1="40" x2="1180" y1="403.7213487649462" y2="403.7213487649462"></line><line x1="40" x2="1180" y1="376.00824022577046" y2="376.00824022577046"></line><line x1="40" x2="1180" y1="348.2951316865949" y2="348.2951316865949"></line><line x1="40" x2="1180" y1="320.58202314741925" y2="320.58202314741925"></line><line x1="40" x2="1180" y1="292.86891460824364" y2="292.86891460824364"></line><line x1="40" x2="1180" y1="265.15580606906803" y2="265.15580606906803"></line><line x1="40" x2="1180" y1="237.44269752989237" y2="237.44269752989237"></line><line x1="40" x2="1180" y1="209.72958899071673" y2="209.72958899071673"></line><line x1="40" x2="1180" y1="182.01648045154104" y2="182.01648045154104"></line><line x1="40" x2="1180" y1="154.30337191236546" y2="154.30337191236546"></line><line x1="40" x2="1180" y1="126.59026337318983" y2="126.59026337318983"></line><line x1="40" x2="1180" y1="98.87715483401416" y2="98.87715483401416"></line><line x1="40" x2="1180" y1="71.16404629483853" y2="71.16404629483853"></line><line x1="40" x2="1180" y1="43.45093775566286" y2="43.45093775566286"></line></g><g aria-label="y-axis tick" aria-hidden="true" fill="none" stroke="currentColor"><path transform="translate(40,570)" d="M0,0L-6,0"></path><path transform="translate(40,542.2868914608243)" d="M0,0L-6,0"></path><path transform="translate(40,514.5737829216487)" d="M0,0L-6,0"></path><path transform="translate(40,486.8606743824731)" d="M0,0L-6,0"></path><path transform="translate(40,459.14756584329746)" d="M0,0L-6,0"></path><path transform="translate(40,431.4344573041218)" d="M0,0L-6,0"></path><path transform="translate(40,403.7213487649462)" d="M0,0L-6,0"></path><path transform="translate(40,376.00824022577046)" d="M0,0L-6,0"></path><path transform="translate(40,348.2951316865949)" d="M0,0L-6,0"></path><path transform="translate(40,320.58202314741925)" d="M0,0L-6,0"></path><path transform="translate(40,292.86891460824364)" d="M0,0L-6,0"></path><path transform="translate(40,265.15580606906803)" d="M0,0L-6,0"></path><path transform="translate(40,237.44269752989237)" d="M0,0L-6,0"></path><path transform="translate(40,209.72958899071673)" d="M0,0L-6,0"></path><path transform="translate(40,182.01648045154104)" d="M0,0L-6,0"></path><path transform="translate(40,154.30337191236546)" d="M0,0L-6,0"></path><path transform="translate(40,126.59026337318983)" d="M0,0L-6,0"></path><path transform="translate(40,98.87715483401416)" d="M0,0L-6,0"></path><path transform="translate(40,71.16404629483853)" d="M0,0L-6,0"></path><path transform="translate(40,43.45093775566286)" d="M0,0L-6,0"></path></g><g aria-label="y-axis tick label" text-anchor="end" font-variant="tabular-nums" transform="translate(-9,0)"><text y="0.32em" transform="translate(40,570)">0</text><text y="0.32em" transform="translate(40,542.2868914608243)">1,000,000</text><text y="0.32em" transform="translate(40,514.5737829216487)">2,000,000</text><text y="0.32em" transform="translate(40,486.8606743824731)">3,000,000</text><text y="0.32em" transform="translate(40,459.14756584329746)">4,000,000</text><text y="0.32em" transform="translate(40,431.4344573041218)">5,000,000</text><text y="0.32em" transform="translate(40,403.7213487649462)">6,000,000</text><text y="0.32em" transform="translate(40,376.00824022577046)">7,000,000</text><text y="0.32em" transform="translate(40,348.2951316865949)">8,000,000</text><text y="0.32em" transform="translate(40,320.58202314741925)">9,000,000</text><text y="0.32em" transform="translate(40,292.86891460824364)">10,000,000</text><text y="0.32em" transform="translate(40,265.15580606906803)">11,000,000</text><text y="0.32em" transform="translate(40,237.44269752989237)">12,000,000</text><text y="0.32em" transform="translate(40,209.72958899071673)">13,000,000</text><text y="0.32em" transform="translate(40,182.01648045154104)">14,000,000</text><text y="0.32em" transform="translate(40,154.30337191236546)">15,000,000</text><text y="0.32em" transform="translate(40,126.59026337318983)">16,000,000</text><text y="0.32em" transform="translate(40,98.87715483401416)">17,000,000</text><text y="0.32em" transform="translate(40,71.16404629483853)">18,000,000</text><text y="0.32em" transform="translate(40,43.45093775566286)">19,000,000</text></g><g aria-label="y-axis label" text-anchor="start" transform="translate(-37,-17)"><text y="0.71em" transform="translate(40,20)">↑ extent</text></g><g aria-label="x-grid" aria-hidden="true" stroke="currentColor" stroke-opacity="0.1"><line x1="40" x2="40" y1="20" y2="570"></line><line x1="143.63636363636363" x2="143.63636363636363" y1="20" y2="570"></line><line x1="247.27272727272728" x2="247.27272727272728" y1="20" y2="570"></line><line x1="350.9090909090909" x2="350.9090909090909" y1="20" y2="570"></line><line x1="454.54545454545456" x2="454.54545454545456" y1="20" y2="570"></line><line x1="558.1818181818182" x2="558.1818181818182" y1="20" y2="570"></line><line x1="661.8181818181818" x2="661.8181818181818" y1="20" y2="570"></line><line x1="765.4545454545454" x2="765.4545454545454" y1="20" y2="570"></line><line x1="869.0909090909091" x2="869.0909090909091" y1="20" y2="570"></line><line x1="972.7272727272727" x2="972.7272727272727" y1="20" y2="570"></line><line x1="1076.3636363636365" x2="1076.3636363636365" y1="20" y2="570"></line><line x1="1180" x2="1180" y1="20" y2="570"></line></g><g aria-label="x-axis tick" aria-hidden="true" fill="none" stroke="currentColor"><path transform="translate(40,570)" d="M0,0L0,6"></path><path transform="translate(143.63636363636363,570)" d="M0,0L0,6"></path><path transform="translate(247.27272727272728,570)" d="M0,0L0,6"></path><path transform="translate(350.9090909090909,570)" d="M0,0L0,6"></path><path transform="translate(454.54545454545456,570)" d="M0,0L0,6"></path><path transform="translate(558.1818181818182,570)" d="M0,0L0,6"></path><path transform="translate(661.8181818181818,570)" d="M0,0L0,6"></path><path transform="translate(765.4545454545454,570)" d="M0,0L0,6"></path><path transform="translate(869.0909090909091,570)" d="M0,0L0,6"></path><path transform="translate(972.7272727272727,570)" d="M0,0L0,6"></path><path transform="translate(1076.3636363636365,570)" d="M0,0L0,6"></path><path transform="translate(1180,570)" d="M0,0L0,6"></path></g><g aria-label="x-axis tick label" font-variant="tabular-nums" transform="translate(0,9)"><text y="0.71em" transform="translate(40,570)">1</text><text y="0.71em" transform="translate(143.63636363636363,570)">2</text><text y="0.71em" transform="translate(247.27272727272728,570)">3</text><text y="0.71em" transform="translate(350.9090909090909,570)">4</text><text y="0.71em" transform="translate(454.54545454545456,570)">5</text><text y="0.71em" transform="translate(558.1818181818182,570)">6</text><text y="0.71em" transform="translate(661.8181818181818,570)">7</text><text y="0.71em" transform="translate(765.4545454545454,570)">8</text><text y="0.71em" transform="translate(869.0909090909091,570)">9</text><text y="0.71em" transform="translate(972.7272727272727,570)">10</text><text y="0.71em" transform="translate(1076.3636363636365,570)">11</text><text y="0.71em" transform="translate(1180,570)">12</text></g><g aria-label="x-axis label" text-anchor="end" transform="translate(17,27)"><text transform="translate(1180,570)">month →</text></g><g aria-label="rule" stroke="currentColor"><line x1="40" x2="1180" y1="570" y2="570"></line></g><g aria-label="line" fill="none" stroke-width="1.5" stroke-linejoin="round" stroke-linecap="round"><path stroke="rgb(5, 48, 97)" d="M40,381.958L57.273,394.015C74.545,406.072,109.091,430.186,143.636,434.411C178.182,438.637,212.727,422.974,247.273,403.114C281.818,383.255,316.364,359.2,350.909,332.777C385.455,306.355,420,277.564,454.545,248.327C489.091,219.089,523.636,189.405,558.182,163.367C592.727,137.33,627.273,114.939,661.818,96.365C696.364,77.791,730.909,63.035,765.455,53.636C800,44.238,834.545,40.197,869.091,36.523C903.636,32.85,938.182,29.544,972.727,35.915C1007.273,42.285,1041.818,58.333,1076.364,93.969C1110.909,129.606,1145.455,184.83,1162.727,212.442L1180,240.054"></path></g><g aria-label="line" fill="none" stroke-width="1.5" stroke-linejoin="round" stroke-linecap="round"><path stroke="rgb(5, 48, 97)" d="M40,402.256L57.273,412.411C74.545,422.566,109.091,442.876,143.636,449.303C178.182,455.73,212.727,448.274,247.273,431.303C281.818,414.331,316.364,387.844,350.909,356.722C385.455,325.599,420,289.841,454.545,257.273C489.091,224.704,523.636,195.325,558.182,171.673C592.727,148.02,627.273,130.093,661.818,109.077C696.364,88.061,730.909,63.956,765.455,50.546C800,37.136,834.545,34.421,869.091,35.302C903.636,36.183,938.182,40.66,972.727,54.494C1007.273,68.329,1041.818,91.521,1076.364,128.461C1110.909,165.4,1145.455,216.086,1162.727,241.429L1180,266.772"></path></g><g aria-label="line" fill="none" stroke-width="1.5" stroke-linejoin="round" stroke-linecap="round"><path stroke="rgb(5, 48, 97)" d="M40,411.649L57.273,422.215C74.545,432.782,109.091,453.914,143.636,460.741C178.182,467.569,212.727,460.092,247.273,441.887C281.818,423.682,316.364,394.748,350.909,364.659C385.455,334.569,420,303.323,454.545,267.216C489.091,231.109,523.636,190.14,558.182,157.878C592.727,125.616,627.273,102.061,661.818,84.836C696.364,67.612,730.909,56.717,765.455,48.591C800,40.465,834.545,35.107,869.091,37.459C903.636,39.811,938.182,49.874,972.727,65.811C1007.273,81.749,1041.818,103.562,1076.364,140.226C1110.909,176.89,1145.455,228.405,1162.727,254.163L1180,279.92"></path></g><g aria-label="line" fill="none" stroke-width="1.5" stroke-linejoin="round" stroke-linecap="round"><path stroke="rgb(5, 48, 97)" d="M40,401.538L57.273,412.504C74.545,423.47,109.091,445.402,143.636,453.374C178.182,461.345,212.727,455.357,247.273,440.22C281.818,425.083,316.364,400.797,350.909,371.94C385.455,343.082,420,309.652,454.545,278.417C489.091,247.182,523.636,218.142,558.182,191.91C592.727,165.678,627.273,142.254,661.818,121.57C696.364,100.885,730.909,82.94,765.455,72.515C800,62.091,834.545,59.187,869.091,63.79C903.636,68.393,938.182,80.504,972.727,98.915C1007.273,117.326,1041.818,142.037,1076.364,177.369C1110.909,212.702,1145.455,258.656,1162.727,281.633L1180,304.61"></path></g><g aria-label="line" fill="none" stroke-width="1.5" stroke-linejoin="round" stroke-linecap="round"><path stroke="rgb(5, 48, 97)" d="M40,416.261L57.273,426.035C74.545,435.808,109.091,455.356,143.636,461.734C178.182,468.112,212.727,461.32,247.273,448.535C281.818,435.75,316.364,416.973,350.909,391.991C385.455,367.01,420,335.824,454.545,304.108C489.091,272.392,523.636,240.145,558.182,215.578C592.727,191.01,627.273,174.121,661.818,157.071C696.364,140.021,730.909,122.81,765.455,113.693C800,104.577,834.545,103.555,869.091,100.475C903.636,97.396,938.182,92.26,972.727,99.013C1007.273,105.766,1041.818,124.41,1076.364,158.862C1110.909,193.313,1145.455,243.574,1162.727,268.704L1180,293.835"></path></g><g aria-label="line" fill="none" stroke-width="1.5" stroke-linejoin="round" stroke-linecap="round"><path stroke="rgb(5, 48, 97)" d="M40,404.269L57.273,411.294C74.545,418.319,109.091,432.368,143.636,439.505C178.182,446.642,212.727,446.867,247.273,437.466C281.818,428.064,316.364,409.036,350.909,385.121C385.455,361.205,420,332.403,454.545,305.745C489.091,279.087,523.636,254.574,558.182,227.395C592.727,200.215,627.273,170.369,661.818,146.852C696.364,123.335,730.909,106.148,765.455,94.936C800,83.725,834.545,78.489,869.091,77.217C903.636,75.946,938.182,78.638,972.727,88.221C1007.273,97.803,1041.818,114.276,1076.364,147.63C1110.909,180.985,1145.455,231.221,1162.727,256.339L1180,281.457"></path></g><g aria-label="line" fill="none" stroke-width="1.5" stroke-linejoin="round" stroke-linecap="round"><path stroke="rgb(5, 48, 97)" d="M40,419.869L57.273,430.351C74.545,440.834,109.091,461.8,143.636,468.331C178.182,474.861,212.727,466.957,247.273,447.14C281.818,427.323,316.364,395.593,350.909,364.018C385.455,332.443,420,301.022,454.545,269.561C489.091,238.099,523.636,206.596,558.182,180.288C592.727,153.98,627.273,132.866,661.818,116.88C696.364,100.893,730.909,90.035,765.455,82.291C800,74.548,834.545,69.919,869.091,69.307C903.636,68.695,938.182,72.099,972.727,85.007C1007.273,97.915,1041.818,120.327,1076.364,159.972C1110.909,199.616,1145.455,256.493,1162.727,284.931C1180,313.369,1180,313.369,1180,313.369L1180,313.369"></path></g><g aria-label="line" fill="none" stroke-width="1.5" stroke-linejoin="round" stroke-linecap="round"><path stroke="rgb(8, 54, 105)" d="M40,443.324L57.273,451.33C74.545,459.337,109.091,475.35,143.636,481.201C178.182,487.051,212.727,482.74,247.273,471.038C281.818,459.336,316.364,440.243,350.909,414.556C385.455,388.869,420,356.587,454.545,323.379C489.091,290.171,523.636,256.037,558.182,225.008C592.727,193.978,627.273,166.053,661.818,141.787C696.364,117.522,730.909,96.916,765.455,81.896C800,66.875,834.545,57.44,869.091,53.842C903.636,50.243,938.182,52.482,972.727,64.574C1007.273,76.666,1041.818,98.613,1076.364,137.53C1110.909,176.448,1145.455,232.336,1162.727,260.28C1180,288.224,1180,288.224,1180,288.224L1180,288.224"></path></g><g aria-label="line" fill="none" stroke-width="1.5" stroke-linejoin="round" stroke-linecap="round"><path stroke="rgb(11, 60, 113)" d="M40,447.77L57.273,454.755C74.545,461.741,109.091,475.711,143.636,480.312C178.182,484.913,212.727,480.143,247.273,466.266C281.818,452.388,316.364,429.402,350.909,401.917C385.455,374.433,420,342.449,454.545,309.371C489.091,276.294,523.636,242.122,558.182,211.248C592.727,180.375,627.273,152.799,661.818,131.127C696.364,109.455,730.909,93.688,765.455,81.894C800,70.101,834.545,62.282,869.091,59.767C903.636,57.251,938.182,60.039,972.727,71.691C1007.273,83.344,1041.818,103.862,1076.364,137.983C1110.909,172.103,1145.455,219.828,1162.727,243.69C1180,267.552,1180,267.552,1180,267.552L1180,267.552"></path></g><g aria-label="line" fill="none" stroke-width="1.5" stroke-linejoin="round" stroke-linecap="round"><path stroke="rgb(14, 66, 121)" d="M40,423.645L57.273,433.577C74.545,443.508,109.091,463.371,143.636,467.923C178.182,472.475,212.727,461.717,247.273,440.68C281.818,419.643,316.364,388.327,350.909,358.416C385.455,328.504,420,299.997,454.545,273.264C489.091,246.532,523.636,221.574,558.182,197.936C592.727,174.299,627.273,151.981,661.818,131.987C696.364,111.994,730.909,94.323,765.455,82.866C800,71.409,834.545,66.165,869.091,66.117C903.636,66.069,938.182,71.217,972.727,83.901C1007.273,96.585,1041.818,116.806,1076.364,156.37C1110.909,195.934,1145.455,254.842,1162.727,284.297C1180,313.751,1180,313.751,1180,313.751L1180,313.751"></path></g><g aria-label="line" fill="none" stroke-width="1.5" stroke-linejoin="round" stroke-linecap="round"><path stroke="rgb(17, 71, 129)" d="M40,437.726L57.273,445.464C74.545,453.201,109.091,468.677,143.636,472.104C178.182,475.532,212.727,466.911,247.273,451.042C281.818,435.173,316.364,412.057,350.909,386.607C385.455,361.158,420,333.376,454.545,305.341C489.091,277.306,523.636,249.019,558.182,221.595C592.727,194.171,627.273,167.612,661.818,146.068C696.364,124.525,730.909,107.997,765.455,93.593C800,79.189,834.545,66.909,869.091,63.833C903.636,60.758,938.182,66.886,972.727,78.989C1007.273,91.092,1041.818,109.168,1076.364,143.922C1110.909,178.676,1145.455,230.107,1162.727,255.823C1180,281.538,1180,281.538,1180,281.538L1180,281.538"></path></g><g aria-label="line" fill="none" stroke-width="1.5" stroke-linejoin="round" stroke-linecap="round"><path stroke="rgb(20, 77, 136)" d="M40,436.878L57.273,446.653C74.545,456.429,109.091,475.981,143.636,481.408C178.182,486.834,212.727,478.135,247.273,460.578C281.818,443.02,316.364,416.604,350.909,388.274C385.455,359.944,420,329.7,454.545,298.78C489.091,267.859,523.636,236.26,558.182,205.563C592.727,174.866,627.273,145.07,661.818,123.06C696.364,101.05,730.909,86.826,765.455,78.617C800,70.408,834.545,68.215,869.091,69.859C903.636,71.503,938.182,76.986,972.727,86.636C1007.273,96.286,1041.818,110.103,1076.364,142.924C1110.909,175.745,1145.455,227.569,1162.727,253.481C1180,279.393,1180,279.393,1180,279.393L1180,279.393"></path></g><g aria-label="line" fill="none" stroke-width="1.5" stroke-linejoin="round" stroke-linecap="round"><path stroke="rgb(24, 83, 144)" d="M40,445.513L57.273,453.104C74.545,460.695,109.091,475.878,143.636,479.41C178.182,482.941,212.727,474.821,247.273,458.174C281.818,441.527,316.364,416.354,350.909,386.621C385.455,356.888,420,322.596,454.545,290.064C489.091,257.532,523.636,226.76,558.182,200.996C592.727,175.232,627.273,154.476,661.818,135.322C696.364,116.168,730.909,98.615,765.455,84.857C800,71.099,834.545,61.136,869.091,58.426C903.636,55.715,938.182,60.257,972.727,71.852C1007.273,83.447,1041.818,102.094,1076.364,133.818C1110.909,165.542,1145.455,210.343,1162.727,232.743C1180,255.144,1180,255.144,1180,255.144L1180,255.144"></path></g><g aria-label="line" fill="none" stroke-width="1.5" stroke-linejoin="round" stroke-linecap="round"><path stroke="rgb(27, 88, 150)" d="M40,419.588L57.273,429.786C74.545,439.984,109.091,460.379,143.636,468.239C178.182,476.098,212.727,471.42,247.273,456.527C281.818,441.635,316.364,416.528,350.909,390.71C385.455,364.893,420,338.365,454.545,309.747C489.091,281.13,523.636,250.422,558.182,222.64C592.727,194.858,627.273,170.002,661.818,149.779C696.364,129.557,730.909,113.969,765.455,102.981C800,91.992,834.545,85.603,869.091,84.79C903.636,83.977,938.182,88.74,972.727,101.451C1007.273,114.163,1041.818,134.823,1076.364,169.61C1110.909,204.397,1145.455,253.31,1162.727,277.767C1180,302.224,1180,302.224,1180,302.224L1180,302.224"></path></g><g aria-label="line" fill="none" stroke-width="1.5" stroke-linejoin="round" stroke-linecap="round"><path stroke="rgb(30, 94, 157)" d="M40,427.314L57.273,436.041C74.545,444.769,109.091,462.223,143.636,466.952C178.182,471.681,212.727,463.684,247.273,447.498C281.818,431.311,316.364,406.936,350.909,381.15C385.455,355.364,420,328.168,454.545,300.504C489.091,272.84,523.636,244.708,558.182,216.724C592.727,188.74,627.273,160.904,661.818,138.491C696.364,116.078,730.909,99.089,765.455,87.575C800,76.06,834.545,70.021,869.091,69.643C903.636,69.265,938.182,74.548,972.727,86.847C1007.273,99.147,1041.818,118.463,1076.364,151.72C1110.909,184.978,1145.455,232.177,1162.727,255.777C1180,279.377,1180,279.377,1180,279.377L1180,279.377"></path></g><g aria-label="line" fill="none" stroke-width="1.5" stroke-linejoin="round" stroke-linecap="round"><path stroke="rgb(33, 99, 162)" d="M40,439.825L57.273,448.142C74.545,456.458,109.091,473.092,143.636,476.418C178.182,479.743,212.727,469.762,247.273,454.046C281.818,438.33,316.364,416.879,350.909,390.844C385.455,364.809,420,334.19,454.545,302.755C489.091,271.321,523.636,239.072,558.182,210.677C592.727,182.282,627.273,157.742,661.818,137.102C696.364,116.462,730.909,99.723,765.455,87.9C800,76.077,834.545,69.171,869.091,65.467C903.636,61.763,938.182,61.262,972.727,71.242C1007.273,81.222,1041.818,101.683,1076.364,135.418C1110.909,169.153,1145.455,216.161,1162.727,239.666C1180,263.17,1180,263.17,1180,263.17L1180,263.17"></path></g><g aria-label="line" fill="none" stroke-width="1.5" stroke-linejoin="round" stroke-linecap="round"><path stroke="rgb(37, 105, 167)" d="M40,438.396L57.273,446.527C74.545,454.657,109.091,470.919,143.636,474.661C178.182,478.403,212.727,469.626,247.273,454.25C281.818,438.873,316.364,416.898,350.909,387.474C385.455,358.051,420,321.179,454.545,287.575C489.091,253.971,523.636,223.635,558.182,198.625C592.727,173.614,627.273,153.93,661.818,135.98C696.364,118.031,730.909,101.817,765.455,90.684C800,79.552,834.545,73.502,869.091,71.698C903.636,69.893,938.182,72.335,972.727,83.355C1007.273,94.375,1041.818,113.974,1076.364,151.02C1110.909,188.066,1145.455,242.559,1162.727,269.806C1180,297.052,1180,297.052,1180,297.052L1180,297.052"></path></g><g aria-label="line" fill="none" stroke-width="1.5" stroke-linejoin="round" stroke-linecap="round"><path stroke="rgb(40, 110, 172)" d="M40,434.8L57.273,443.259C74.545,451.717,109.091,468.634,143.636,472.794C178.182,476.953,212.727,468.356,247.273,450.045C281.818,431.734,316.364,403.709,350.909,377.148C385.455,350.587,420,325.49,454.545,297.389C489.091,269.287,523.636,238.18,558.182,211.129C592.727,184.078,627.273,161.083,661.818,140.369C696.364,119.655,730.909,101.222,765.455,89.112C800,77.002,834.545,71.214,869.091,69.45C903.636,67.686,938.182,69.947,972.727,82.539C1007.273,95.131,1041.818,118.055,1076.364,154.997C1110.909,191.94,1145.455,242.901,1162.727,268.382C1180,293.862,1180,293.862,1180,293.862L1180,293.862"></path></g><g aria-label="line" fill="none" stroke-width="1.5" stroke-linejoin="round" stroke-linecap="round"><path stroke="rgb(44, 115, 176)" d="M40,421.743L57.273,431.803C74.545,441.862,109.091,461.981,143.636,469.044C178.182,476.107,212.727,470.115,247.273,452.131C281.818,434.148,316.364,404.174,350.909,374.285C385.455,344.397,420,314.594,454.545,286.819C489.091,259.044,523.636,233.297,558.182,208.949C592.727,184.601,627.273,161.653,661.818,140.15C696.364,118.646,730.909,98.589,765.455,85.824C800,73.06,834.545,67.59,869.091,66.68C903.636,65.77,938.182,69.421,972.727,82.029C1007.273,94.637,1041.818,116.202,1076.364,151.895C1110.909,187.589,1145.455,237.411,1162.727,262.322C1180,287.233,1180,287.233,1180,287.233L1180,287.233"></path></g><g aria-label="line" fill="none" stroke-width="1.5" stroke-linejoin="round" stroke-linecap="round"><path stroke="rgb(48, 120, 180)" d="M40,438.107L57.273,446.932C74.545,455.758,109.091,473.409,143.636,478.839C178.182,484.27,212.727,477.48,247.273,459.208C281.818,440.936,316.364,411.182,350.909,381.84C385.455,352.497,420,323.567,454.545,295.782C489.091,267.998,523.636,241.36,558.182,213.784C592.727,186.208,627.273,157.693,661.818,134.965C696.364,112.237,730.909,95.294,765.455,84.877C800,74.461,834.545,70.569,869.091,69.612C903.636,68.654,938.182,70.63,972.727,81.039C1007.273,91.447,1041.818,110.289,1076.364,146C1110.909,181.71,1145.455,234.29,1162.727,260.579C1180,286.869,1180,286.869,1180,286.869L1180,286.869"></path></g><g aria-label="line" fill="none" stroke-width="1.5" stroke-linejoin="round" stroke-linecap="round"><path stroke="rgb(52, 125, 183)" d="M40,447.483L57.273,456.387C74.545,465.29,109.091,483.097,143.636,486.52C178.182,489.943,212.727,478.983,247.273,459.71C281.818,440.437,316.364,412.852,350.909,383.116C385.455,353.381,420,321.496,454.545,291.49C489.091,261.484,523.636,233.357,558.182,206.784C592.727,180.211,627.273,155.192,661.818,135.121C696.364,115.049,730.909,99.925,765.455,87.508C800,75.091,834.545,65.382,869.091,62.452C903.636,59.522,938.182,63.37,972.727,74.937C1007.273,86.504,1041.818,105.79,1076.364,143.637C1110.909,181.484,1145.455,237.894,1162.727,266.098C1180,294.303,1180,294.303,1180,294.303L1180,294.303"></path></g><g aria-label="line" fill="none" stroke-width="1.5" stroke-linejoin="round" stroke-linecap="round"><path stroke="rgb(56, 131, 186)" d="M40,432.041L57.273,440.203C74.545,448.365,109.091,464.688,143.636,466.612C178.182,468.536,212.727,456.061,247.273,437.48C281.818,418.899,316.364,394.212,350.909,367.137C385.455,340.062,420,310.6,454.545,281.311C489.091,252.023,523.636,222.908,558.182,195.721C592.727,168.533,627.273,143.272,661.818,123.507C696.364,103.742,730.909,89.474,765.455,78.758C800,68.042,834.545,60.878,869.091,59.719C903.636,58.56,938.182,63.406,972.727,76.043C1007.273,88.68,1041.818,109.108,1076.364,146.026C1110.909,182.944,1145.455,236.35,1162.727,263.054C1180,289.757,1180,289.757,1180,289.757L1180,289.757"></path></g><g aria-label="line" fill="none" stroke-width="1.5" stroke-linejoin="round" stroke-linecap="round"><path stroke="rgb(61, 136, 189)" d="M40,413.424L57.273,423.017C74.545,432.609,109.091,451.795,143.636,456.46C178.182,461.126,212.727,451.273,247.273,434.137C281.818,417.002,316.364,392.585,350.909,365.823C385.455,339.062,420,309.956,454.545,282.147C489.091,254.337,523.636,227.824,558.182,203.215C592.727,178.606,627.273,155.901,661.818,135.109C696.364,114.318,730.909,95.441,765.455,83.296C800,71.15,834.545,65.735,869.091,64.632C903.636,63.529,938.182,66.737,972.727,79.414C1007.273,92.092,1041.818,114.238,1076.364,148.469C1110.909,182.7,1145.455,229.015,1162.727,252.173C1180,275.331,1180,275.331,1180,275.331L1180,275.331"></path></g><g aria-label="line" fill="none" stroke-width="1.5" stroke-linejoin="round" stroke-linecap="round"><path stroke="rgb(66, 141, 192)" d="M40,406.996L57.273,420.327C74.545,433.659,109.091,460.321,143.636,468.113C178.182,475.904,212.727,464.825,247.273,444.983C281.818,425.14,316.364,396.534,350.909,365.431C385.455,334.327,420,300.726,454.545,270.283C489.091,239.84,523.636,212.557,558.182,188.519C592.727,164.482,627.273,143.691,661.818,125.803C696.364,107.915,730.909,92.93,765.455,81.324C800,69.718,834.545,61.491,869.091,60.458C903.636,59.426,938.182,65.588,972.727,79.053C1007.273,92.519,1041.818,113.288,1076.364,151.693C1110.909,190.098,1145.455,246.138,1162.727,274.158C1180,302.178,1180,302.178,1180,302.178L1180,302.178"></path></g><g aria-label="line" fill="none" stroke-width="1.5" stroke-linejoin="round" stroke-linecap="round"><path stroke="rgb(72, 146, 195)" d="M40,453.373L57.273,461.262C74.545,469.151,109.091,484.928,143.636,488.347C178.182,491.765,212.727,482.825,247.273,464.336C281.818,445.847,316.364,417.81,350.909,387.014C385.455,356.218,420,322.665,454.545,292.067C489.091,261.468,523.636,233.824,558.182,207.045C592.727,180.267,627.273,154.352,661.818,133.246C696.364,112.14,730.909,95.843,765.455,83.479C800,71.115,834.545,62.685,869.091,61.255C903.636,59.824,938.182,65.392,972.727,78.625C1007.273,91.857,1041.818,112.754,1076.364,148.373C1110.909,183.991,1145.455,234.331,1162.727,259.501C1180,284.671,1180,284.671,1180,284.671L1180,284.671"></path></g><g aria-label="line" fill="none" stroke-width="1.5" stroke-linejoin="round" stroke-linecap="round"><path stroke="rgb(78, 151, 197)" d="M40,445.967L57.273,452.78C74.545,459.594,109.091,473.221,143.636,474.869C178.182,476.518,212.727,466.189,247.273,448.339C281.818,430.489,316.364,405.117,350.909,376.381C385.455,347.645,420,315.545,454.545,285.705C489.091,255.865,523.636,228.285,558.182,202.253C592.727,176.22,627.273,151.734,661.818,130.625C696.364,109.516,730.909,91.784,765.455,78.195C800,64.606,834.545,55.161,869.091,51.561C903.636,47.962,938.182,50.209,972.727,62.236C1007.273,74.264,1041.818,96.071,1076.364,133.686C1110.909,171.3,1145.455,224.722,1162.727,251.432C1180,278.143,1180,278.143,1180,278.143L1180,278.143"></path></g><g aria-label="line" fill="none" stroke-width="1.5" stroke-linejoin="round" stroke-linecap="round"><path stroke="rgb(85, 156, 200)" d="M40,436.219L57.273,444.763C74.545,453.308,109.091,470.398,143.636,474.268C178.182,478.138,212.727,468.79,247.273,450.654C281.818,432.519,316.364,405.596,350.909,376.551C385.455,347.506,420,316.339,454.545,285.125C489.091,253.91,523.636,222.65,558.182,194.854C592.727,167.059,627.273,142.729,661.818,122.818C696.364,102.908,730.909,87.418,765.455,76.26C800,65.102,834.545,58.277,869.091,56.452C903.636,54.627,938.182,57.802,972.727,70.426C1007.273,83.05,1041.818,105.123,1076.364,140.384C1110.909,175.645,1145.455,224.095,1162.727,248.32C1180,272.545,1180,272.545,1180,272.545L1180,272.545"></path></g><g aria-label="line" fill="none" stroke-width="1.5" stroke-linejoin="round" stroke-linecap="round"><path stroke="rgb(92, 161, 203)" d="M40,438.09L57.273,446.597C74.545,455.104,109.091,472.118,143.636,475.18C178.182,478.242,212.727,467.352,247.273,447.836C281.818,428.32,316.364,400.178,350.909,368.605C385.455,337.033,420,302.03,454.545,270.798C489.091,239.565,523.636,212.103,558.182,188.183C592.727,164.264,627.273,143.887,661.818,123.957C696.364,104.026,730.909,84.541,765.455,71.651C800,58.761,834.545,52.466,869.091,52.817C903.636,53.167,938.182,60.164,972.727,74.628C1007.273,89.092,1041.818,111.023,1076.364,149.01C1110.909,186.998,1145.455,241.041,1162.727,268.063C1180,295.085,1180,295.085,1180,295.085L1180,295.085"></path></g><g aria-label="line" fill="none" stroke-width="1.5" stroke-linejoin="round" stroke-linecap="round"><path stroke="rgb(99, 167, 206)" d="M40,424.685L57.273,431.994C74.545,439.304,109.091,453.923,143.636,456.239C178.182,458.555,212.727,448.568,247.273,432.891C281.818,417.213,316.364,395.845,350.909,369.983C385.455,344.121,420,313.764,454.545,284.319C489.091,254.873,523.636,226.339,558.182,200.826C592.727,175.314,627.273,152.824,661.818,134.321C696.364,115.818,730.909,101.302,765.455,90.568C800,79.834,834.545,72.883,869.091,71.479C903.636,70.075,938.182,74.218,972.727,86.07C1007.273,97.921,1041.818,117.479,1076.364,151.579C1110.909,185.679,1145.455,234.321,1162.727,258.642C1180,282.963,1180,282.963,1180,282.963L1180,282.963"></path></g><g aria-label="line" fill="none" stroke-width="1.5" stroke-linejoin="round" stroke-linecap="round"><path stroke="rgb(107, 172, 208)" d="M40,438.355L57.273,446.574C74.545,454.794,109.091,471.233,143.636,475.813C178.182,480.393,212.727,473.115,247.273,457.559C281.818,442.004,316.364,418.171,350.909,391.545C385.455,364.919,420,335.501,454.545,307.564C489.091,279.626,523.636,253.17,558.182,225.903C592.727,198.636,627.273,170.558,661.818,148.884C696.364,127.211,730.909,111.942,765.455,100.511C800,89.081,834.545,81.488,869.091,77.791C903.636,74.094,938.182,74.294,972.727,85.766C1007.273,97.239,1041.818,119.985,1076.364,152.707C1110.909,185.429,1145.455,228.128,1162.727,249.478C1180,270.827,1180,270.827,1180,270.827L1180,270.827"></path></g><g aria-label="line" fill="none" stroke-width="1.5" stroke-linejoin="round" stroke-linecap="round"><path stroke="rgb(115, 177, 211)" d="M40,411.863L57.273,419.991C74.545,428.12,109.091,444.377,143.636,449.164C178.182,453.95,212.727,447.265,247.273,431.423C281.818,415.58,316.364,390.579,350.909,362.09C385.455,333.601,420,301.624,454.545,270.66C489.091,239.697,523.636,209.748,558.182,183.588C592.727,157.428,627.273,135.057,661.818,118.317C696.364,101.577,730.909,90.467,765.455,81.683C800,72.899,834.545,66.441,869.091,63.977C903.636,61.513,938.182,63.043,972.727,74.508C1007.273,85.974,1041.818,107.375,1076.364,144.588C1110.909,181.801,1145.455,234.826,1162.727,261.339C1180,287.851,1180,287.851,1180,287.851L1180,287.851"></path></g><g aria-label="line" fill="none" stroke-width="1.5" stroke-linejoin="round" stroke-linecap="round"><path stroke="rgb(123, 182, 214)" d="M40,417.28L57.273,425.391C74.545,433.501,109.091,449.723,143.636,453.298C178.182,456.872,212.727,447.8,247.273,430.775C281.818,413.751,316.364,388.776,350.909,361.599C385.455,334.423,420,305.045,454.545,274.939C489.091,244.833,523.636,213.997,558.182,186.786C592.727,159.574,627.273,135.986,661.818,116.548C696.364,97.11,730.909,81.821,765.455,70.094C800,58.367,834.545,50.202,869.091,48.614C903.636,47.027,938.182,52.018,972.727,66.811C1007.273,81.603,1041.818,106.197,1076.364,146.292C1110.909,186.386,1145.455,241.982,1162.727,269.78C1180,297.578,1180,297.578,1180,297.578L1180,297.578"></path></g><g aria-label="line" fill="none" stroke-width="1.5" stroke-linejoin="round" stroke-linecap="round"><path stroke="rgb(131, 187, 216)" d="M40,442.821L57.273,449.939C74.545,457.056,109.091,471.291,143.636,473.162C178.182,475.034,212.727,464.541,247.273,445.939C281.818,427.338,316.364,400.627,350.909,372.182C385.455,343.737,420,313.558,454.545,284.753C489.091,255.947,523.636,228.516,558.182,201.453C592.727,174.389,627.273,147.694,661.818,126.278C696.364,104.862,730.909,88.725,765.455,76.843C800,64.96,834.545,57.332,869.091,55.633C903.636,53.935,938.182,58.167,972.727,71.212C1007.273,84.258,1041.818,106.117,1076.364,148.79C1110.909,191.463,1145.455,254.95,1162.727,286.693C1180,318.436,1180,318.436,1180,318.436L1180,318.436"></path></g><g aria-label="line" fill="none" stroke-width="1.5" stroke-linejoin="round" stroke-linecap="round"><path stroke="rgb(139, 191, 219)" d="M40,461.616L57.273,467.305C74.545,472.993,109.091,484.371,143.636,487.182C178.182,489.993,212.727,484.239,247.273,468.588C281.818,452.936,316.364,427.389,350.909,398.585C385.455,369.782,420,337.722,454.545,303.692C489.091,269.661,523.636,233.661,558.182,202.834C592.727,172.007,627.273,146.354,661.818,124.417C696.364,102.48,730.909,84.258,765.455,70.804C800,57.349,834.545,48.661,869.091,46.152C903.636,43.643,938.182,47.313,972.727,61.877C1007.273,76.442,1041.818,101.901,1076.364,144.585C1110.909,187.268,1145.455,247.176,1162.727,277.129C1180,307.083,1180,307.083,1180,307.083L1180,307.083"></path></g><g aria-label="line" fill="none" stroke-width="1.5" stroke-linejoin="round" stroke-linecap="round"><path stroke="rgb(146, 196, 221)" d="M40,445.922L57.273,452.686C74.545,459.449,109.091,472.976,143.636,475.316C178.182,477.655,212.727,468.808,247.273,452.719C281.818,436.631,316.364,413.302,350.909,386.63C385.455,359.958,420,329.943,454.545,298.04C489.091,266.136,523.636,232.344,558.182,203.228C592.727,174.113,627.273,149.673,661.818,129.585C696.364,109.497,730.909,93.761,765.455,80.497C800,67.232,834.545,56.441,869.091,53.1C903.636,49.76,938.182,53.871,972.727,68.904C1007.273,83.937,1041.818,109.893,1076.364,141.45C1110.909,173.008,1145.455,210.167,1162.727,228.747C1180,247.326,1180,247.326,1180,247.326L1180,247.326"></path></g><g aria-label="line" fill="none" stroke-width="1.5" stroke-linejoin="round" stroke-linecap="round"><path stroke="rgb(154, 200, 224)" d="M40,399.954L57.273,410.498C74.545,421.043,109.091,442.133,143.636,445.677C178.182,449.22,212.727,435.219,247.273,414.416C281.818,393.614,316.364,366.011,350.909,339.16C385.455,312.309,420,286.209,454.545,259.194C489.091,232.178,523.636,204.245,558.182,181.077C592.727,157.909,627.273,139.506,661.818,123.059C696.364,106.611,730.909,92.118,765.455,82.78C800,73.442,834.545,69.259,869.091,67.993C903.636,66.726,938.182,68.377,972.727,78.183C1007.273,87.988,1041.818,105.948,1076.364,138.689C1110.909,171.431,1145.455,218.954,1162.727,242.716C1180,266.478,1180,266.478,1180,266.478L1180,266.478"></path></g><g aria-label="line" fill="none" stroke-width="1.5" stroke-linejoin="round" stroke-linecap="round"><path stroke="rgb(161, 204, 226)" d="M40,416.511L57.273,427.44C74.545,438.37,109.091,460.23,143.636,464.402C178.182,468.574,212.727,455.058,247.273,433.133C281.818,411.208,316.364,380.874,350.909,351.25C385.455,321.626,420,292.712,454.545,264.372C489.091,236.032,523.636,208.267,558.182,183.841C592.727,159.414,627.273,138.327,661.818,119.357C696.364,100.388,730.909,83.536,765.455,71.213C800,58.891,834.545,51.098,869.091,50.294C903.636,49.491,938.182,55.676,972.727,71.076C1007.273,86.476,1041.818,111.091,1076.364,148.243C1110.909,185.395,1145.455,235.083,1162.727,259.927C1180,284.771,1180,284.771,1180,284.771L1180,284.771"></path></g><g aria-label="line" fill="none" stroke-width="1.5" stroke-linejoin="round" stroke-linecap="round"><path stroke="rgb(168, 208, 228)" d="M40,437.403L57.273,444.732C74.545,452.061,109.091,466.719,143.636,470.148C178.182,473.577,212.727,465.776,247.273,448.972C281.818,432.168,316.364,406.36,350.909,375.505C385.455,344.651,420,308.75,454.545,273.377C489.091,238.004,523.636,203.159,558.182,174.276C592.727,145.393,627.273,122.471,661.818,103.385C696.364,84.298,730.909,69.046,765.455,60.441C800,51.836,834.545,49.877,869.091,49.61C903.636,49.343,938.182,50.768,972.727,61.871C1007.273,72.973,1041.818,93.753,1076.364,130.488C1110.909,167.224,1145.455,219.916,1162.727,246.262C1180,272.607,1180,272.607,1180,272.607L1180,272.607"></path></g><g aria-label="line" fill="none" stroke-width="1.5" stroke-linejoin="round" stroke-linecap="round"><path stroke="rgb(175, 212, 230)" d="M40,448.301L57.273,456.087C74.545,463.874,109.091,479.447,143.636,483.444C178.182,487.44,212.727,479.86,247.273,463.775C281.818,447.69,316.364,423.101,350.909,392.278C385.455,361.456,420,324.4,454.545,290.989C489.091,257.577,523.636,227.81,558.182,201.742C592.727,175.674,627.273,153.304,661.818,132.702C696.364,112.1,730.909,93.264,765.455,79.559C800,65.854,834.545,57.278,869.091,57.946C903.636,58.614,938.182,68.524,972.727,85.537C1007.273,102.549,1041.818,126.662,1076.364,160.365C1110.909,194.067,1145.455,237.359,1162.727,259.004C1180,280.65,1180,280.65,1180,280.65L1180,280.65"></path></g><g aria-label="line" fill="none" stroke-width="1.5" stroke-linejoin="round" stroke-linecap="round"><path stroke="rgb(182, 215, 232)" d="M40,433.523L57.273,442.157C74.545,450.791,109.091,468.058,143.636,472.372C178.182,476.686,212.727,468.046,247.273,451.469C281.818,434.893,316.364,410.38,350.909,383.672C385.455,356.965,420,328.064,454.545,299.394C489.091,270.724,523.636,242.284,558.182,215.487C592.727,188.689,627.273,163.533,661.818,142.189C696.364,120.846,730.909,103.315,765.455,87.642C800,71.97,834.545,58.156,869.091,52.931C903.636,47.706,938.182,51.07,972.727,65.176C1007.273,79.283,1041.818,104.131,1076.364,144.023C1110.909,183.915,1145.455,238.85,1162.727,266.317C1180,293.785,1180,293.785,1180,293.785L1180,293.785"></path></g><g aria-label="line" fill="none" stroke-width="1.5" stroke-linejoin="round" stroke-linecap="round"><path stroke="rgb(188, 218, 234)" d="M40,422.175L57.273,428.815C74.545,435.456,109.091,448.737,143.636,449.628C178.182,450.519,212.727,439.02,247.273,421.342C281.818,403.664,316.364,379.808,350.909,352.607C385.455,325.407,420,294.863,454.545,264.656C489.091,234.449,523.636,204.579,558.182,177.541C592.727,150.503,627.273,126.297,661.818,105.563C696.364,84.829,730.909,67.567,765.455,55.547C800,43.526,834.545,36.747,869.091,35.132C903.636,33.516,938.182,37.064,972.727,49.799C1007.273,62.534,1041.818,84.456,1076.364,119.713C1110.909,154.971,1145.455,203.564,1162.727,227.861C1180,252.157,1180,252.157,1180,252.157L1180,252.157"></path></g><g aria-label="line" fill="none" stroke-width="1.5" stroke-linejoin="round" stroke-linecap="round"><path stroke="rgb(194, 222, 236)" d="M40,401.131L57.273,411.348C74.545,421.565,109.091,442,143.636,446.991C178.182,451.982,212.727,441.53,247.273,420.541C281.818,399.552,316.364,368.026,350.909,337.361C385.455,306.696,420,276.891,454.545,247.411C489.091,217.932,523.636,188.778,558.182,163.019C592.727,137.26,627.273,114.897,661.818,95.606C696.364,76.316,730.909,60.099,765.455,48.01C800,35.921,834.545,27.96,869.091,27.708C903.636,27.456,938.182,34.912,972.727,51.855C1007.273,68.797,1041.818,95.227,1076.364,129.841C1110.909,164.456,1145.455,207.255,1162.727,228.655C1180,250.055,1180,250.055,1180,250.055L1180,250.055"></path></g><g aria-label="line" fill="none" stroke-width="1.5" stroke-linejoin="round" stroke-linecap="round"><path stroke="rgb(200, 224, 237)" d="M40,388.427L57.273,400.81C74.545,413.194,109.091,437.961,143.636,444.538C178.182,451.116,212.727,439.504,247.273,418.194C281.818,396.884,316.364,365.877,350.909,334.898C385.455,303.918,420,272.967,454.545,244.761C489.091,216.555,523.636,191.094,558.182,168C592.727,144.905,627.273,124.177,661.818,109.308C696.364,94.44,730.909,85.431,765.455,77.891C800,70.35,834.545,64.278,869.091,61.375C903.636,58.472,938.182,58.737,972.727,70.286C1007.273,81.836,1041.818,104.668,1076.364,142.898C1110.909,181.128,1145.455,234.754,1162.727,261.567C1180,288.381,1180,288.381,1180,288.381L1180,288.381"></path></g><g aria-label="line" fill="none" stroke-width="1.5" stroke-linejoin="round" stroke-linecap="round"><path stroke="rgb(206, 227, 238)" d="M40,443.758L57.273,451.377C74.545,458.996,109.091,474.235,143.636,475.818C178.182,477.401,212.727,465.328,247.273,444.864C281.818,424.4,316.364,395.544,350.909,368.07C385.455,340.595,420,314.501,454.545,286.681C489.091,258.861,523.636,229.316,558.182,201.676C592.727,174.036,627.273,148.301,661.818,127.141C696.364,105.98,730.909,89.393,765.455,79.932C800,70.471,834.545,68.137,869.091,70.453C903.636,72.769,938.182,79.735,972.727,99.894C1007.273,120.054,1041.818,153.407,1076.364,197.872C1110.909,242.338,1145.455,297.916,1162.727,325.706C1180,353.495,1180,353.495,1180,353.495L1180,353.495"></path></g><g aria-label="line" fill="none" stroke-width="1.5" stroke-linejoin="round" stroke-linecap="round"><path stroke="rgb(211, 230, 240)" d="M40,467.53L57.273,473.294C74.545,479.057,109.091,490.585,143.636,494.093C178.182,497.601,212.727,493.089,247.273,478.711C281.818,464.332,316.364,440.085,350.909,411.635C385.455,383.184,420,350.53,454.545,318.309C489.091,286.089,523.636,254.302,558.182,225.268C592.727,196.234,627.273,169.953,661.818,147.971C696.364,125.988,730.909,108.305,765.455,96.603C800,84.901,834.545,79.18,869.091,76.849C903.636,74.517,938.182,75.575,972.727,89.558C1007.273,103.542,1041.818,130.451,1076.364,170.904C1110.909,211.358,1145.455,265.356,1162.727,292.355C1180,319.354,1180,319.354,1180,319.354L1180,319.354"></path></g><g aria-label="line" fill="none" stroke-width="1.5" stroke-linejoin="round" stroke-linecap="round"><path stroke="rgb(216, 232, 241)" d="M40,458.509L57.273,465.432C74.545,472.355,109.091,486.201,143.636,487.604C178.182,489.007,212.727,477.966,247.273,461.324C281.818,444.682,316.364,422.438,350.909,395.944C385.455,369.45,420,338.705,454.545,306.944C489.091,275.183,523.636,242.406,558.182,212.945C592.727,183.485,627.273,157.342,661.818,136.529C696.364,115.717,730.909,100.235,765.455,90.119C800,80.002,834.545,75.251,869.091,74.364C903.636,73.478,938.182,76.457,972.727,91.684C1007.273,106.911,1041.818,134.385,1076.364,177.212C1110.909,220.039,1145.455,278.218,1162.727,307.308C1180,336.397,1180,336.397,1180,336.397L1180,336.397"></path></g><g aria-label="line" fill="none" stroke-width="1.5" stroke-linejoin="round" stroke-linecap="round"><path stroke="rgb(221, 234, 242)" d="M40,466.712L57.273,471.191C74.545,475.669,109.091,484.626,143.636,486.571C178.182,488.516,212.727,483.448,247.273,469.367C281.818,455.286,316.364,432.192,350.909,406.093C385.455,379.994,420,350.891,454.545,320.484C489.091,290.078,523.636,258.368,558.182,228.477C592.727,198.585,627.273,170.512,661.818,146.719C696.364,122.926,730.909,103.412,765.455,89.62C800,75.828,834.545,67.757,869.091,65.82C903.636,63.883,938.182,68.079,972.727,84.568C1007.273,101.056,1041.818,129.837,1076.364,171.417C1110.909,212.996,1145.455,267.374,1162.727,294.562C1180,321.751,1180,321.751,1180,321.751L1180,321.751"></path></g><g aria-label="line" fill="none" stroke-width="1.5" stroke-linejoin="round" stroke-linecap="round"><path stroke="rgb(225, 236, 242)" d="M40,449.745L57.273,456.062C74.545,462.379,109.091,475.013,143.636,476.095C178.182,477.177,212.727,466.706,247.273,449.221C281.818,431.735,316.364,407.235,350.909,380.065C385.455,352.895,420,323.055,454.545,292.401C489.091,261.748,523.636,230.281,558.182,203.175C592.727,176.068,627.273,153.321,661.818,132.834C696.364,112.348,730.909,94.121,765.455,80.025C800,65.928,834.545,55.963,869.091,52.821C903.636,49.679,938.182,53.36,972.727,66.841C1007.273,80.321,1041.818,103.599,1076.364,142.905C1110.909,182.211,1145.455,237.546,1162.727,265.213C1180,292.88,1180,292.88,1180,292.88L1180,292.88"></path></g><g aria-label="line" fill="none" stroke-width="1.5" stroke-linejoin="round" stroke-linecap="round"><path stroke="rgb(229, 238, 242)" d="M40,446.69L57.273,453.632C74.545,460.574,109.091,474.457,143.636,473.929C178.182,473.4,212.727,458.46,247.273,438.572C281.818,418.685,316.364,393.85,350.909,366.361C385.455,338.872,420,308.729,454.545,279.149C489.091,249.569,523.636,220.551,558.182,192.661C592.727,164.772,627.273,138.01,661.818,116.707C696.364,95.405,730.909,79.561,765.455,70.234C800,60.908,834.545,58.098,869.091,61.1C903.636,64.102,938.182,72.916,972.727,90.873C1007.273,108.83,1041.818,135.931,1076.364,177.866C1110.909,219.801,1145.455,276.57,1162.727,304.955C1180,333.34,1180,333.34,1180,333.34L1180,333.34"></path></g><g aria-label="line" fill="none" stroke-width="1.5" stroke-linejoin="round" stroke-linecap="round"><path stroke="rgb(233, 239, 242)" d="M40,465.237L57.273,471.458C74.545,477.68,109.091,490.122,143.636,493.259C178.182,496.395,212.727,490.225,247.273,473.219C281.818,456.214,316.364,428.373,350.909,398.667C385.455,368.961,420,337.39,454.545,308.575C489.091,279.759,523.636,253.698,558.182,228.011C592.727,202.324,627.273,177.01,661.818,154.815C696.364,132.62,730.909,113.544,765.455,99.344C800,85.144,834.545,75.819,869.091,74.409C903.636,72.999,938.182,79.504,972.727,94.531C1007.273,109.557,1041.818,133.105,1076.364,175.612C1110.909,218.119,1145.455,279.584,1162.727,310.316C1180,341.049,1180,341.049,1180,341.049L1180,341.049"></path></g><g aria-label="line" fill="none" stroke-width="1.5" stroke-linejoin="round" stroke-linecap="round"><path stroke="rgb(236, 239, 241)" d="M40,480.769L57.273,485.712C74.545,490.656,109.091,500.543,143.636,501.013C178.182,501.484,212.727,492.538,247.273,476.176C281.818,459.814,316.364,436.036,350.909,410.9C385.455,385.763,420,359.269,454.545,333.693C489.091,308.116,523.636,283.457,558.182,259.522C592.727,235.586,627.273,212.373,661.818,191.912C696.364,171.451,730.909,153.741,765.455,139.073C800,124.405,834.545,112.78,869.091,109.837C903.636,106.894,938.182,112.634,972.727,125.851C1007.273,139.067,1041.818,159.761,1076.364,196.588C1110.909,233.415,1145.455,286.376,1162.727,312.485C1180,338.594,1180,337.85,1180,337.479L1180,337.107"></path></g><g aria-label="line" fill="none" stroke-width="1.5" stroke-linejoin="round" stroke-linecap="round"><path stroke="rgb(239, 240, 240)" d="M40,459.606L57.273,466.943C74.545,474.28,109.091,488.953,143.636,491.364C178.182,493.775,212.727,483.925,247.273,465.454C281.818,446.983,316.364,419.891,350.909,392.033C385.455,364.175,420,335.55,454.545,309.805C489.091,284.06,523.636,261.195,558.182,239.067C592.727,216.938,627.273,195.546,661.818,174.673C696.364,153.8,730.909,133.446,765.455,119.873C800,106.299,834.545,99.505,869.091,99.008C903.636,98.51,938.182,104.308,972.727,118.991C1007.273,133.673,1041.818,157.24,1076.364,191.339C1110.909,225.438,1145.455,270.069,1162.727,292.385L1180,314.701"></path></g><g aria-label="line" fill="none" stroke-width="1.5" stroke-linejoin="round" stroke-linecap="round"><path stroke="rgb(242, 239, 238)" d="M40,440.483L57.273,450.768C74.545,461.053,109.091,481.622,143.636,488.077C178.182,494.532,212.727,486.872,247.273,468.831C281.818,450.79,316.364,422.367,350.909,394.033C385.455,365.699,420,337.453,454.545,310.042C489.091,282.63,523.636,256.054,558.182,231.025C592.727,205.996,627.273,182.515,661.818,162.207C696.364,141.899,730.909,124.764,765.455,110.865C800,96.966,834.545,86.303,869.091,84.428C903.636,82.552,938.182,89.466,972.727,104.81C1007.273,120.153,1041.818,143.927,1076.364,180.966C1110.909,218.006,1145.455,268.311,1162.727,293.463L1180,318.616"></path></g></svg>